<svg width="80" height="80" viewBox="0 0 80 80" fill="none" xmlns="http://www.w3.org/2000/svg">
<path d="M61.4506 49.2287C63.5949 47.9933 65.0292 45.6644 64.9771 43.0041C64.9014 39.3735 61.9713 36.3346 58.3407 36.1453C54.2936 35.9322 50.9469 39.151 50.9469 43.1509C50.9469 45.7543 52.367 48.0217 54.4734 49.2287C51.2688 49.5506 48.7695 52.2534 48.7695 55.5432V69.9994H64.5842C66.0043 69.9994 67.1545 68.8492 67.1545 67.4291V55.5432C67.1545 52.2534 64.6552 49.5506 61.4506 49.2287Z" fill="#5182F6"/>
<path d="M24.6811 49.2287C26.8254 47.9933 28.2597 45.6644 28.2076 43.0041C28.1319 39.3735 25.2018 36.3346 21.5712 36.1453C17.524 35.9322 14.1774 39.151 14.1774 43.1509C14.1774 45.7543 15.5975 48.0217 17.7039 49.2287C14.4993 49.5506 12 52.2534 12 55.5432V67.4291C12 68.8492 13.1502 69.9994 14.5703 69.9994H30.385V55.5432C30.385 52.2534 27.8857 49.5506 24.6811 49.2287Z" fill="#5182F6"/>
<path d="M43.6048 46.0249C46.1373 44.5669 47.8129 41.7883 47.6662 38.6216C47.4768 34.5366 44.1776 31.1805 40.0973 30.9249C35.3922 30.6314 31.4823 34.3614 31.4823 39.005C31.4823 42.0108 33.1201 44.6237 35.5531 46.0249C31.8562 46.3988 28.9688 49.5182 28.9688 53.3145V70.0002H50.1892V53.3145C50.1892 49.5182 47.3017 46.3988 43.6048 46.0249Z" fill="#5182F6"/>
<path d="M45.9448 17.0695L39.9379 10.1349C39.7817 9.95503 39.5025 9.95503 39.3462 10.1349L33.3394 17.0695C33.1169 17.3251 33.3015 17.718 33.6376 17.718H36.6718V26.0064C36.6718 26.5366 37.1026 26.9673 37.6327 26.9673H41.6515C42.1816 26.9673 42.6124 26.5366 42.6124 26.0064V17.718H45.6466C45.9827 17.718 46.1625 17.3204 45.9448 17.0695Z" fill="#5182F6"/>
<path d="M27.6167 22.4982L21.6098 15.5636C21.4536 15.3837 21.1743 15.3837 21.0181 15.5636L15.0113 22.4982C14.7888 22.7538 14.9734 23.1467 15.3095 23.1467H18.3437V31.4351C18.3437 31.9653 18.7744 32.396 19.3046 32.396H23.3234C23.8535 32.396 24.2843 31.9653 24.2843 31.4351V23.1467H27.3185C27.6545 23.1467 27.8344 22.7491 27.6167 22.4982Z" fill="#5182F6"/>
<path d="M64.2778 22.4982L58.271 15.5636C58.1147 15.3837 57.8355 15.3837 57.6793 15.5636L51.6724 22.4982C51.4499 22.7538 51.6345 23.1467 51.9706 23.1467H55.0048V31.4351C55.0048 31.9653 55.4356 32.396 55.9657 32.396H59.9845C60.5146 32.396 60.9454 31.9653 60.9454 31.4351V23.1467H63.9796C64.3157 23.1467 64.4955 22.7491 64.2778 22.4982Z" fill="#5182F6"/>
</svg>
