<svg width="80" height="80" viewBox="0 0 80 80" fill="none" xmlns="http://www.w3.org/2000/svg">
<path d="M34.5516 43.0574C39.616 43.0574 43.7215 38.9519 43.7215 33.8876C43.7215 28.8232 39.616 24.7178 34.5516 24.7178C29.4873 24.7178 25.3818 28.8232 25.3818 33.8876C25.3818 38.9519 29.4873 43.0574 34.5516 43.0574Z" fill="#5182F6"/>
<path d="M41.0362 53.4943L56.2649 39.6785C56.5185 39.4521 56.8989 39.4521 57.1479 39.6785L57.2566 39.7781C57.8 37.7902 58.0943 35.7026 58.0943 33.5472C58.0943 20.5419 47.5525 10 34.5472 10C21.5419 10 11 20.5419 11 33.5472C11 38.9087 12.7977 43.8536 15.8136 47.8113H15.7547L34.7328 70L44.6045 58.1313V54.64H41.4755C40.8732 54.64 40.5879 53.9019 41.0317 53.4943H41.0362ZM34.5517 46.9057C27.2974 46.9057 21.4196 41.0279 21.4196 33.7736C21.4196 26.5192 27.2974 20.6415 34.5517 20.6415C41.806 20.6415 47.6838 26.5192 47.6838 33.7736C47.6838 41.0279 41.806 46.9057 34.5517 46.9057Z" fill="#5182F6"/>
<path d="M69.2291 52.7069L57.048 41.6578C56.8487 41.4767 56.5408 41.4767 56.3416 41.6578L44.1604 52.7069C43.8027 53.0329 44.0336 53.6216 44.5136 53.6216H47.0133V69.9959H53.3121V64.4895C53.3121 62.6238 54.8246 61.1114 56.6902 61.1114C58.5559 61.1114 60.0683 62.6238 60.0683 64.4895V69.9959H66.7431V67.3922V53.6171H68.8714C69.3514 53.6171 69.5778 53.0239 69.2246 52.7023L69.2291 52.7069Z" fill="#5182F6"/>
</svg>
