<svg width="21" height="20" viewBox="0 0 21 20" fill="none" xmlns="http://www.w3.org/2000/svg">
<path fill-rule="evenodd" clip-rule="evenodd" d="M8.29252 2.23214C8.57852 2.53177 8.56748 3.00651 8.26786 3.29252L4.12192 7.25H14.125C17.0935 7.25 19.5 9.65647 19.5 12.625C19.5 15.5935 17.0935 18 14.125 18H11.25C10.8358 18 10.5 17.6642 10.5 17.25C10.5 16.8358 10.8358 16.5 11.25 16.5H14.125C16.2651 16.5 18 14.7651 18 12.625C18 10.4849 16.2651 8.75 14.125 8.75H4.12192L8.26786 12.7075C8.56748 12.9935 8.57852 13.4682 8.29252 13.7679C8.00651 14.0675 7.53177 14.0785 7.23214 13.7925L1.73214 8.54252C1.58388 8.401 1.5 8.20496 1.5 8C1.5 7.79504 1.58388 7.59901 1.73214 7.45748L7.23214 2.20748C7.53177 1.92148 8.00651 1.93252 8.29252 2.23214Z" fill="#232323"/>
</svg>
