<svg width="98" height="50" viewBox="0 0 98 50" fill="none" xmlns="http://www.w3.org/2000/svg">
<path d="M73.9018 38.7598C70.6726 38.7598 66.5212 36.7529 61.2129 32.6237C57.5379 29.7654 54.6921 26.946 54.5726 26.8279L52.7129 24.9793L54.5726 23.1307C54.6921 23.0126 57.5379 20.1918 61.2129 17.3348C66.5212 13.2057 70.6726 11.1987 73.9018 11.1987C76.2629 11.1987 78.6893 11.9723 80.7323 13.3765C82.7393 14.7543 84.299 16.6793 85.1268 18.7973C86.7296 22.9015 86.7296 27.0626 85.1268 31.1654C84.3004 33.2821 82.7393 35.2071 80.7323 36.5862C78.6879 37.9904 76.2629 38.764 73.9018 38.764V38.7598ZM60.2212 24.9779C61.3268 25.9765 62.8115 27.264 64.4532 28.539C70.274 33.0585 72.999 33.5459 73.9018 33.5459C76.5796 33.5459 79.3171 31.7057 80.2698 29.2654C81.4115 26.3404 81.4115 23.6154 80.2698 20.689C79.3171 18.2487 76.5796 16.4085 73.9018 16.4085C73.0004 16.4085 70.274 16.896 64.4532 21.4154C62.8115 22.6904 61.3268 23.9779 60.2212 24.9765V24.9779Z" fill="#5182F6"/>
<path d="M23.4859 50C16.4692 50 9.89561 46.7194 5.45395 40.9986C3.62617 38.6444 2.2345 36.0028 1.32061 33.1472C0.448389 30.4264 0.0275559 27.5778 0.0692226 24.6792C0.151167 18.9347 2.06367 13.3667 5.45395 9.00139C9.897 3.28056 16.4692 0 23.4859 0C26.5623 0 30.2262 1.25833 34.6873 3.84722C38.0053 5.77222 41.7512 8.44028 45.8206 11.7764C52.6817 17.4 58.0553 22.9319 58.2817 23.1653L60.0359 24.9764L58.2831 26.7903C58.0581 27.0236 52.6831 32.5667 45.822 38.2C41.7526 41.5417 38.0067 44.2153 34.6887 46.1444C30.2262 48.7389 26.5623 50 23.4859 50ZM23.4859 5.21389C18.0914 5.21389 13.0192 7.75972 9.57061 12.2C3.81089 19.6167 3.81089 30.3833 9.57061 37.8C13.0178 42.2403 18.0901 44.7861 23.4859 44.7861C25.7609 44.7861 31.2539 43.4111 42.4776 34.2014C46.8039 30.6514 50.5914 27.0625 52.7192 24.9806C50.5914 22.9014 46.8053 19.3222 42.4803 15.7792C31.2567 6.58611 25.7623 5.21389 23.4859 5.21389Z" fill="#5182F6"/>
<path d="M64.4528 21.4168C62.8111 22.6932 60.2209 24.9779 60.2209 24.9779L56.4667 28.6126C56.4667 28.6126 53.9306 31.0709 52.1667 32.6876L48.4736 28.9946C50.2042 27.414 51.6639 26.0154 52.7181 24.9834L52.7209 24.9807C52.7209 24.9807 52.7167 24.9765 52.7153 24.9751L54.5722 23.1293C54.6306 23.0709 55.3347 22.3751 56.4653 21.3446C57.6486 20.2668 59.3 18.8237 61.1695 17.3682L64.8847 21.0834C64.7431 21.1918 64.5986 21.3029 64.4528 21.4168Z" fill="url(#paint0_linear_4100_323)"/>
<path d="M61.6984 32.9958C56.1623 28.4986 55.422 27.7333 54.0804 26.3444C53.122 25.3528 51.8095 23.9944 47.7734 20.3514L51.2665 16.4819C55.4359 20.2458 56.8193 21.6764 57.829 22.7222C59.0693 24.0055 59.6915 24.65 64.9846 28.95L61.697 32.9972L61.6984 32.9958Z" fill="#5182F6"/>
<path d="M24.0531 11.1958C21.6919 11.1958 19.2656 11.9694 17.2225 13.3736C15.2156 14.7527 13.6558 16.6764 12.8281 18.7944C11.2253 22.8986 11.2253 27.0597 12.8281 31.1625C13.6544 33.2791 15.2156 35.2041 17.2225 36.5833C19.2669 37.9875 21.6919 38.7611 24.0531 38.7611C27.2822 38.7611 31.4336 36.7541 36.7419 32.625C40.4169 29.7666 43.2628 26.9472 43.3822 26.8291L45.242 24.9805L43.3822 23.1319C43.2628 23.0139 40.4169 20.193 36.7419 17.3361C31.4336 13.2069 27.2822 11.2 24.0531 11.2V11.1958ZM33.5017 28.5389C27.6808 33.0583 24.9558 33.5458 24.0531 33.5458C21.3753 33.5458 18.6378 31.7055 17.685 29.2652C16.5433 26.3402 16.5433 23.6152 17.685 20.6889C18.6378 18.2486 21.3753 16.4083 24.0531 16.4083C24.9544 16.4083 27.6808 16.8958 33.5017 21.4152C35.1433 22.6902 36.6281 23.9777 37.7336 24.9764C36.6281 25.975 35.1433 27.2625 33.5017 28.5375V28.5389Z" fill="#FFD200"/>
<path d="M97.8845 24.6792C97.8026 18.9347 95.8901 13.3681 92.4998 9.00139C88.0568 3.28056 81.4845 0 74.4665 0C71.3901 0 67.7262 1.25972 63.2637 3.85139C60.1901 5.6375 56.7498 8.05972 53.0234 11.0611C54.4582 12.3194 55.7776 13.5222 56.9387 14.6042C67.1776 6.46806 72.2901 5.2125 74.4665 5.2125C79.8623 5.2125 84.9332 7.75833 88.3818 12.1986C94.1415 19.6153 94.1415 30.3819 88.3818 37.7986C84.9332 42.2389 79.8623 44.7847 74.4665 44.7847C72.2929 44.7847 67.1818 43.5306 56.9387 35.3931C55.7776 36.4764 54.4582 37.6778 53.0234 38.9361C56.7498 41.9389 60.1901 44.3611 63.2637 46.1458C67.7262 48.7375 71.3901 49.9972 74.4665 49.9972C81.4845 49.9972 88.0568 46.7167 92.4998 40.9944C94.3276 38.6403 95.7179 35.9986 96.6332 33.1431C97.5054 30.4222 97.9262 27.5736 97.8845 24.675V24.6792Z" fill="#F3535B"/>
<defs>
<linearGradient id="paint0_linear_4100_323" x1="50.2653" y1="30.9168" x2="62.9889" y2="19.0515" gradientUnits="userSpaceOnUse">
<stop stop-color="#5182F6"/>
<stop offset="0.3" stop-color="#3E71DD"/>
<stop offset="0.51" stop-color="#3669D1"/>
<stop offset="0.72" stop-color="#3F71DE"/>
<stop offset="1" stop-color="#5182F6"/>
</linearGradient>
</defs>
</svg>
