<svg width="620" height="577" viewBox="0 0 620 577" fill="none" xmlns="http://www.w3.org/2000/svg">
<path fill-rule="evenodd" clip-rule="evenodd" d="M293.925 301.809C278.583 303.579 266.809 303.367 258.605 301.173C250.402 298.979 243.932 294.312 239.196 287.172C234.033 276.252 231.169 269.995 230.604 268.398C227.836 260.576 227.529 252.888 228.059 247.716C228.751 240.96 232.463 232.157 239.196 221.306C240.155 213.761 241.746 207.079 243.969 201.259C246.191 195.439 250.646 187.06 257.333 176.122L258.287 140.166C261.108 131.936 263.76 126.102 266.242 122.665C268.724 119.228 271.588 117.425 274.833 117.256C277.572 116.996 280.117 117.632 282.47 119.165C284.823 120.698 289.277 124.622 295.834 130.938C301.249 121.489 307.401 114.276 314.289 109.301C321.178 104.326 330.3 100.507 341.654 97.8459L343.245 94.6639L343.437 75.9476L338.154 30.3885H331.154L341.972 14.4787C342.938 10.9731 343.892 8.42753 344.836 6.84202C345.78 5.2565 347.542 3.45348 350.124 1.43294C350.171 0.84707 352.294 0.528631 356.493 0.477625C360.692 0.426619 367.306 0.638912 376.337 1.1145C380.192 1.99997 382.844 3.16668 384.292 4.61465C385.74 6.06262 387.013 9.13851 388.11 13.8423L403.622 30.4109L393.838 31.0249L392.883 61.2534C391.522 66.4376 390.249 69.9377 389.065 71.7538C387.88 73.57 385.971 74.9488 383.337 75.8904L367.746 76.845L365.837 95.3003L367.109 97.8459C375.073 100.122 380.482 101.925 383.337 103.255C390.194 106.449 396.397 111.074 401.156 119.165C404.488 124.829 407.936 132.654 412.611 140.802C416.727 147.977 424.258 160.598 435.203 178.667L446.022 188.213L451.431 199.032L464.477 208.896L470.522 189.168C458.219 170.5 452.067 158.621 452.067 153.53C452.067 151.402 453.353 149.396 454.613 148.121C456.367 146.344 458.777 145.253 462.886 145.575C465.625 145.79 468.276 147.487 470.841 150.666L507.433 248.989C503.791 260.924 500.609 269.834 497.887 275.717C495.165 281.6 491.135 287.434 485.796 293.218C478.103 297.533 471.633 300.078 466.386 300.854C461.139 301.63 452.548 300.888 440.612 298.627C436.432 296.714 433.675 294.911 432.339 293.218C427.387 286.941 425.317 278.979 422.793 274.762C419.249 268.84 417.128 263.324 416.43 258.216L399.883 204.441L328.29 202.214L321.608 256.625C317.955 271.413 314.031 282.232 309.835 289.081C305.638 295.93 300.335 300.173 293.925 301.809Z" fill="white"/>
<path fill-rule="evenodd" clip-rule="evenodd" d="M298.851 313.531C297.555 313.297 296.6 313.182 295.985 313.184C293.626 313.194 291.7 313.073 290.572 311.274C289.003 308.771 289.427 305.799 291.845 302.357L298.533 300.128H301.717L324.963 301.083L332.287 300.128L358.081 299.173C360.84 300.447 361.796 302.888 360.947 306.497C360.097 310.106 357.762 312.335 353.941 313.184L346.298 313.531L294.711 550.074H261.594C267.263 512.913 271.827 484.966 275.287 466.232C278.746 447.498 286.601 396.597 298.851 313.531ZM379.734 313.531C379.684 312.779 377.667 312.664 373.684 313.184C370.287 311.486 368.908 308.832 369.544 305.223C370.181 301.614 371.774 299.704 374.321 299.491L379.098 300.128H393.746L408.394 301.083L424.634 299.491C429.729 299.916 432.277 302.251 432.277 306.497C432.277 308.91 431.464 310.163 430.366 311.274C429.811 311.836 428.749 312.472 427.182 313.184L422.087 313.531L435.143 550.392H400.751C396.118 507.798 393.146 477.938 391.835 460.812C390.274 440.416 381.439 339.033 379.734 313.531Z" fill="white"/>
<path fill-rule="evenodd" clip-rule="evenodd" d="M298.851 313.212H346.298L294.711 549.755H261.594C267.263 512.594 271.827 484.647 275.287 465.913C278.746 447.179 286.601 396.278 298.851 313.212ZM379.734 313.212H422.087L435.143 550.074H400.751C396.118 507.479 393.146 477.619 391.835 460.493C390.274 440.097 381.439 338.714 379.734 313.212Z" stroke="#263E4B" stroke-width="0.955316"/>
<path fill-rule="evenodd" clip-rule="evenodd" d="M328.471 102.172L292.568 102.341C274.656 102.425 259.929 116.486 259.016 134.375L258.414 146.166C258.975 140.102 259.718 135.852 260.643 133.414C262.112 129.544 263.808 127.318 265.738 124.807C268.656 121.01 271.962 117.806 274.654 117.156C280.811 115.668 287.71 120.45 295.353 131.501C296.633 129.025 297.694 127.113 298.537 125.763C300.22 123.068 302.011 120.158 305.225 117.156C311.593 111.205 319.342 106.21 328.471 102.172Z" fill="#BAD9EA"/>
<path fill-rule="evenodd" clip-rule="evenodd" d="M299.172 299.504C302.447 300.699 308.604 301.23 317.641 301.098C322.562 301.026 331.421 299.557 338.977 299.185C343.19 298.978 349.559 298.978 358.083 299.185L365.407 279.739H372.413L374.642 299.185C382.094 299.651 387.401 299.97 390.564 300.141C397.365 300.51 403.022 300.779 407.441 300.779C414.942 300.779 420.462 300.248 424 299.185L407.759 208.33L332.289 211.199C331.303 225.034 327.694 240.229 321.463 256.786C320.134 260.314 319.922 264.774 318.597 269.219C316.577 275.991 314.352 282.541 311.909 287.071C309.592 291.368 305.346 295.513 299.172 299.504Z" fill="#BAD9EA"/>
<path d="M423.5 299.397L416.208 256.867C416.164 256.606 416.338 256.359 416.598 256.315C416.858 256.27 417.105 256.445 417.15 256.705L424.406 299.026H425.436C429.481 299.026 432.76 302.308 432.76 306.358C432.76 310.407 429.481 313.69 425.436 313.69H375.189C371.603 313.69 368.696 310.78 368.696 307.19C368.696 306.89 368.717 306.589 368.759 306.292L369.14 303.554C369.483 301.091 371.391 299.164 373.806 298.767L371.983 280.217H365.741L358.741 298.803C360.694 299.255 362.077 301.079 361.918 303.141C361.905 303.319 361.879 303.496 361.843 303.67L361.261 306.456C360.379 310.671 356.667 313.69 352.365 313.69H294.11C291.426 313.69 289.25 311.512 289.25 308.824C289.25 308.316 289.33 307.81 289.486 307.326C289.911 306.012 290.441 304.314 291.076 302.233C291.153 301.981 291.42 301.838 291.672 301.916C291.925 301.993 292.067 302.26 291.989 302.513C291.353 304.598 290.822 306.301 290.395 307.621C290.269 308.01 290.205 308.416 290.205 308.824C290.205 310.983 291.954 312.734 294.11 312.734H352.365C356.215 312.734 359.537 310.032 360.326 306.26L360.908 303.474C360.936 303.34 360.955 303.204 360.966 303.068C361.1 301.325 359.801 299.804 358.063 299.663C354.111 299.585 351.316 299.546 349.678 299.544C345.245 299.539 332.743 300.265 330.127 300.615C324.19 301.411 321.045 301.525 315.91 301.352C315.743 301.347 315.743 301.347 315.575 301.341C313.741 301.279 312.863 301.257 311.692 301.257C307.445 301.257 304.271 301.15 302.165 300.936C299.694 300.684 298.575 300.332 298.702 299.437L299.648 299.571C299.658 299.502 299.639 299.45 299.626 299.427C299.693 299.478 299.831 299.542 300.033 299.606C300.502 299.753 301.249 299.881 302.262 299.985C304.329 300.195 307.474 300.301 311.692 300.301C312.877 300.301 313.763 300.323 315.608 300.385C315.775 300.391 315.775 300.391 315.942 300.396C321.028 300.568 324.12 300.455 330 299.667C332.662 299.311 345.205 298.583 349.679 298.588C351.279 298.589 353.972 298.627 357.758 298.7L364.963 279.57C365.034 279.384 365.212 279.261 365.41 279.261H372.416H376.556C376.82 279.261 377.033 279.475 377.033 279.739C377.033 280.003 376.82 280.217 376.556 280.217H372.943L374.771 298.819C376.88 299.168 381.094 299.344 387.383 299.344C389.747 299.344 401.3 299.99 404.623 300.303C408.41 300.659 414.708 300.358 423.5 299.397ZM424.021 299.982L424.056 300.298C414.968 301.305 408.466 301.625 404.534 301.255C401.238 300.945 389.713 300.301 387.383 300.301C380.658 300.301 376.287 300.101 374.234 299.694L374.238 299.673C372.103 299.895 370.384 301.547 370.086 303.687L369.705 306.424C369.669 306.678 369.652 306.934 369.652 307.19C369.652 310.252 372.131 312.734 375.189 312.734H425.436C428.953 312.734 431.805 309.879 431.805 306.358C431.805 302.837 428.953 299.982 425.436 299.982H424.021Z" fill="#263E4B"/>
<path d="M368.413 76.8286L366.559 96.4216C381.654 101.558 391.305 106.018 395.55 109.841C401.056 114.798 415.168 143.449 422.401 162.252C424.585 167.931 427.97 171.528 436.186 178.185L436.877 178.745C445.128 185.431 448.5 189.041 450.565 194.778C453.753 203.637 460.132 205.765 469.977 201.201C470.216 201.09 470.5 201.195 470.611 201.434C470.722 201.674 470.617 201.958 470.378 202.069C460.052 206.856 453.056 204.522 449.666 195.103C447.68 189.585 444.394 186.066 436.276 179.488L435.585 178.928C427.242 172.168 423.774 168.483 421.509 162.596C414.34 143.957 400.257 115.364 394.912 110.552C390.76 106.814 381.075 102.352 365.895 97.2059C365.685 97.1348 365.552 96.9286 365.572 96.7079L367.453 76.8286H361.908C361.644 76.8286 361.431 76.6145 361.431 76.3504C361.431 76.0863 361.644 75.8722 361.908 75.8722H367.972C367.976 75.8722 367.979 75.8722 367.983 75.8722H378.591C385.163 75.8722 388.976 73.1967 390.967 67.7901C392.566 63.4455 392.956 58.4236 392.956 47.6884V40.3767C392.956 40.2756 392.956 40.1935 392.956 40.0075C392.961 36.4529 392.797 34.4049 392.035 31.2821C392.018 31.2635 391.996 31.2407 391.97 31.2141C391.895 31.1395 391.792 31.0421 391.659 30.9227H346.118C345.854 30.9227 345.641 30.7086 345.641 30.4445C345.641 30.1804 345.854 29.9663 346.118 29.9663H391.841C391.958 29.9663 392.071 30.0091 392.158 30.0865C392.722 30.5863 392.89 30.7541 392.942 30.9678C393.744 34.2293 393.916 36.3509 393.912 40.0087C393.912 40.1946 393.911 40.2762 393.911 40.3767V47.6884C393.911 58.5446 393.517 63.6294 391.863 68.1209C389.734 73.9025 385.565 76.8286 378.591 76.8286H368.413ZM507.932 248.362L508.848 248.633C500.847 275.836 492.35 291.694 483.253 296.234C468.932 303.38 451.421 303.929 437.168 296.931C435.284 296.006 433.805 294.714 432.305 292.729C431.235 291.313 430.179 289.61 428.494 286.654C428.053 285.881 426.373 282.903 426.126 282.467C425.07 280.605 424.158 279.02 423.186 277.368C421.855 275.106 419.965 270.111 417.498 262.35L418.409 262.06C420.854 269.752 422.727 274.704 424.009 276.883C424.984 278.539 425.899 280.128 426.956 281.995C427.205 282.433 428.884 285.409 429.324 286.18C430.989 289.102 432.028 290.778 433.066 292.151C434.482 294.024 435.848 295.217 437.589 296.072C451.565 302.935 468.764 302.395 482.827 295.378C491.601 290.999 500.004 275.318 507.932 248.362Z" fill="#263E4B"/>
<path fill-rule="evenodd" clip-rule="evenodd" d="M376.872 100.897L382.604 103.129C386.637 115.455 389.715 125.976 391.838 134.689C393.961 143.403 395.341 156.367 395.978 173.582L388.017 171.35C388.654 157.536 387.486 145.315 384.514 134.689C383.22 130.061 380.672 118.797 376.872 100.897ZM328.151 102.172L333.564 99.9409C334.838 109.363 335.475 116.801 335.475 122.256C335.475 127.711 335.475 133.237 335.475 138.833L327.195 150.629C328.469 146.803 329.106 138.196 329.106 124.807C329.106 111.417 328.788 103.873 328.151 102.172Z" fill="#BAD9EA"/>
<path d="M376.725 100.997L376.541 100.131L383.308 102.765L383.378 102.98C387.415 115.317 390.497 125.849 392.623 134.576C394.755 143.327 396.138 156.32 396.776 173.564L396.8 174.219L387.843 171.708L387.861 171.328C388.495 157.562 387.332 145.392 384.375 134.818C383.077 130.176 380.528 118.907 376.725 100.997ZM385.295 134.56C388.254 145.141 389.432 157.285 388.832 170.992L395.797 172.944C395.15 156.085 393.782 143.368 391.695 134.802C389.588 126.153 386.536 115.715 382.541 103.492L377.844 101.664C381.54 119.05 384.025 130.02 385.295 134.56ZM328.024 102.34L327.862 101.906L334.275 99.2627L334.358 99.8766C335.634 109.318 336.273 116.776 336.273 122.256V138.984L326.031 153.575L327.063 150.477C328.314 146.719 328.949 138.142 328.949 124.806C328.949 111.523 328.63 103.957 328.024 102.34ZM329.904 124.806C329.904 135.861 329.472 143.667 328.598 148.256L335.318 138.682V122.256C335.318 116.945 334.71 109.731 333.494 100.619L329.051 102.451C329.629 104.844 329.904 112.234 329.904 124.806Z" fill="#263E4B"/>
<path d="M367.813 102.308L368.729 102.037L412.048 248.408C414.524 261.345 423.446 267.784 438.965 267.784C454.491 267.784 467.255 257.409 477.273 236.568L478.133 236.983C467.971 258.124 454.91 268.741 438.965 268.741C423.012 268.741 413.677 262.004 411.121 248.633L367.813 102.308ZM391.364 220.69L392.308 220.836C387.392 252.714 378.152 268.741 364.45 268.741C353.364 268.741 345.988 234.212 342.956 168.184C342.384 155.734 342.066 134.476 342 104.405L342.955 104.403C343.021 134.461 343.339 155.708 343.91 168.14C346.903 233.308 354.268 267.784 364.45 267.784C377.496 267.784 386.514 252.144 391.364 220.69Z" fill="#263E4B"/>
<path fill-rule="evenodd" clip-rule="evenodd" d="M438.957 205.009L472.323 201.502L474.297 220.279L440.93 223.786L438.957 205.009ZM408.009 171.347L404.873 141.512C406.131 138.286 409.446 136.391 414.818 135.826C420.189 135.261 423.826 136.426 425.727 139.32L428.863 169.155L408.009 171.347ZM495.596 162.141L474.742 164.333L471.606 134.498C472.864 131.272 476.179 129.377 481.551 128.812C486.922 128.247 490.558 129.412 492.46 132.306L495.596 162.141Z" fill="#263E4B"/>
<path fill-rule="evenodd" clip-rule="evenodd" d="M405.389 204.475L400.542 158.367C402.573 153.372 407.886 150.423 416.48 149.519C425.074 148.616 430.884 150.396 433.909 154.86L438.755 200.968L405.389 204.475ZM505.488 193.954L472.121 197.461L467.275 151.353C469.306 146.358 474.619 143.409 483.213 142.506C491.807 141.602 497.617 143.382 500.642 147.846L505.488 193.954Z" fill="white"/>
<path fill-rule="evenodd" clip-rule="evenodd" d="M405.178 204.603L400.332 158.495C402.362 153.5 407.675 150.551 416.269 149.648C424.864 148.745 430.673 150.525 433.698 154.988L438.544 201.097L405.178 204.603ZM505.277 194.083L471.911 197.59L467.064 151.481C469.095 146.486 474.408 143.537 483.002 142.634C491.596 141.731 497.406 143.511 500.431 147.974L505.277 194.083Z" fill="white" stroke="#263E4B" stroke-width="0.955316" stroke-linecap="round" stroke-linejoin="round"/>
<path fill-rule="evenodd" clip-rule="evenodd" d="M404.36 255.579L398.753 202.238C401.654 196.401 409.013 192.862 420.83 191.62C432.647 190.378 440.581 192.31 444.632 197.416L450.238 250.757L404.36 255.579ZM516.971 243.743L471.092 248.565L465.486 195.224C468.387 189.387 475.746 185.848 487.563 184.606C499.38 183.364 507.314 185.296 511.365 190.402L516.971 243.743Z" fill="white"/>
<path d="M404.263 256.07C404 256.098 403.765 255.907 403.738 255.645L398.131 202.303C398.122 202.213 398.138 202.122 398.179 202.04C401.168 196.026 408.67 192.418 420.633 191.161C432.596 189.903 440.685 191.873 444.859 197.134C444.916 197.205 444.951 197.291 444.96 197.382L450.567 250.723C450.594 250.985 450.404 251.221 450.141 251.248L404.263 256.07ZM449.566 250.347L444.025 197.621C440.071 192.752 432.32 190.894 420.733 192.112C409.146 193.33 401.951 196.758 399.096 202.344L404.638 255.069L449.566 250.347ZM517.299 243.709C517.327 243.972 517.137 244.207 516.874 244.234L470.996 249.056C470.733 249.084 470.498 248.893 470.471 248.631L464.864 195.29C464.855 195.199 464.871 195.108 464.911 195.027C467.901 189.012 475.403 185.404 487.366 184.147C499.329 182.889 507.418 184.859 511.592 190.12C511.648 190.191 511.684 190.277 511.693 190.368L517.299 243.709ZM516.299 243.333L510.758 190.607C506.804 185.738 499.053 183.88 487.466 185.098C475.879 186.316 468.684 189.744 465.829 195.33L471.371 248.055L516.299 243.333Z" fill="#263E4B"/>
<path fill-rule="evenodd" clip-rule="evenodd" d="M427.975 261.007C415.306 262.339 404.667 259.915 404.213 255.594C403.759 251.273 413.661 246.691 426.33 245.359C438.999 244.028 449.638 246.451 450.092 250.772C450.546 255.093 440.644 259.676 427.975 261.007ZM494.708 253.993C482.038 255.325 471.4 252.901 470.946 248.58C470.492 244.259 480.394 239.677 493.063 238.346C505.732 237.014 516.37 239.437 516.825 243.758C517.279 248.079 507.377 252.662 494.708 253.993Z" fill="#263E4B"/>
<path d="M392.934 213.49C396.94 213.069 399.845 209.479 399.424 205.472C399.003 201.464 395.414 198.557 391.409 198.978C387.403 199.399 384.498 202.989 384.919 206.996C385.34 211.004 388.929 213.911 392.934 213.49ZM392.834 212.539C389.353 212.905 386.235 210.379 385.869 206.897C385.503 203.414 388.028 200.295 391.509 199.929C394.99 199.563 398.108 202.09 398.474 205.572C398.84 209.054 396.315 212.173 392.834 212.539Z" fill="#263E4B"/>
<path d="M240.033 221.381L246.468 219.038C246.716 218.948 246.99 219.076 247.08 219.324C247.17 219.572 247.042 219.847 246.794 219.937L241.073 222.02L246.874 225.452C247.101 225.586 247.177 225.879 247.042 226.107C246.908 226.334 246.615 226.409 246.388 226.275L239.91 222.443L239.789 222.487C239.732 222.508 239.675 222.517 239.618 222.516C227.923 238.107 225.218 253.489 231.469 268.718C237.564 283.565 240.303 288.864 244.92 293.437C250.243 298.71 257.574 301.45 270.248 302.854C294.149 305.502 308.109 297.573 314.326 279.899C318.211 268.856 320.433 261.124 320.99 256.726C321.023 256.464 321.263 256.278 321.524 256.312C321.786 256.345 321.971 256.584 321.938 256.846C321.37 261.331 319.134 269.113 315.227 280.217C308.856 298.328 294.469 306.5 270.143 303.805C257.274 302.379 249.75 299.566 244.248 294.117C239.505 289.418 236.733 284.055 230.586 269.082C224.164 253.438 226.996 237.619 239.049 221.683C240.346 205.502 246.213 190.357 256.645 176.257C267.044 162.2 277.761 151.632 288.8 144.556C296.26 124.767 307.093 111.514 321.302 104.827C328.382 101.496 333.695 99.2809 337.252 98.1812C339.634 97.4446 341.329 97.1735 342.277 97.4725L343.915 67.3982C343.929 67.1345 344.154 66.9324 344.418 66.9454C344.681 66.9612 344.883 67.1866 344.869 67.4503L343.165 98.736C343.132 99.3556 342.211 99.3305 342.211 98.71C342.211 98.1246 340.737 98.1046 337.534 99.095C334.029 100.179 328.751 102.379 321.709 105.693C307.71 112.281 297.019 125.387 289.638 145.042C289.602 145.139 289.535 145.221 289.448 145.277C278.468 152.285 267.789 162.801 257.412 176.826C247.167 190.675 241.376 205.524 240.033 221.381Z" fill="#263E4B"/>
<path fill-rule="evenodd" clip-rule="evenodd" d="M342.798 94.8403L338.324 106.169C338.065 106.824 338.386 107.563 339.041 107.822C339.298 107.924 339.582 107.939 339.849 107.865L358.957 102.563L371.603 107.068C372.266 107.304 372.994 106.958 373.23 106.295C373.371 105.899 373.308 105.458 373.06 105.118L366.044 95.4779C364.742 96.6114 361.954 97.1781 357.68 97.1781C353.405 97.1781 348.444 96.3989 342.798 94.8403Z" fill="white"/>
<path d="M358.662 102.912L340.298 108.007C339.931 108.108 339.54 108.088 339.186 107.947C338.287 107.591 337.846 106.573 338.201 105.672L342.674 94.3459C342.764 94.1188 343.01 93.9958 343.245 94.0607C348.853 95.6086 353.773 96.3813 358 96.3813C362.167 96.3813 364.863 95.8333 366.051 94.7986C366.262 94.6145 366.586 94.6511 366.75 94.8777L373.764 104.514C374.105 104.983 374.193 105.589 373.999 106.135C373.675 107.047 372.673 107.524 371.762 107.199L359.619 102.874C359.641 103.055 359.666 103.268 359.694 103.513C359.814 104.55 359.993 106.158 360.232 108.337C360.709 112.694 361.426 119.336 362.381 128.263C362.409 128.525 362.219 128.761 361.957 128.789C361.695 128.817 361.459 128.627 361.431 128.365C360.476 119.439 359.76 112.798 359.282 108.441C359.043 106.264 358.864 104.657 358.745 103.622C358.713 103.344 358.685 103.107 358.662 102.912ZM358.65 97.3333C358.755 97.7433 358.855 98.1995 358.951 98.698C359.107 99.5105 359.229 100.292 359.374 101.323L359.435 101.76C359.436 101.772 359.438 101.783 359.44 101.795L372.082 106.298C372.496 106.445 372.952 106.229 373.099 105.814C373.187 105.566 373.147 105.29 372.992 105.078L366.265 95.8342C364.822 96.7958 362.292 97.2825 358.65 97.3333ZM358.499 101.964C358.496 101.942 358.492 101.919 358.489 101.894L358.428 101.456C358.285 100.439 358.165 99.6717 358.013 98.8789C357.901 98.299 357.785 97.7816 357.663 97.3361C353.525 97.2974 348.773 96.55 343.405 95.0959L339.09 106.024C338.928 106.433 339.128 106.896 339.537 107.058C339.698 107.122 339.876 107.131 340.043 107.085L358.499 101.964Z" fill="#263E4B"/>
<path fill-rule="evenodd" clip-rule="evenodd" d="M293.438 204.28C319.863 162.113 335.042 138.841 338.974 134.465C342.043 131.049 347.3 130.768 350.716 133.838C353.272 136.134 354.152 139.767 352.93 142.979L343.432 167.938" fill="white"/>
<path d="M293.731 204.758C320.126 162.64 335.315 139.353 339.218 135.009C342.113 131.788 347.067 131.526 350.285 134.423C352.692 136.591 353.52 140.019 352.367 143.048L342.875 167.992L343.768 168.332L353.26 143.388C354.553 139.99 353.625 136.144 350.924 133.712C347.314 130.461 341.755 130.756 338.508 134.369C334.547 138.778 319.378 162.035 292.922 204.25L293.731 204.758Z" fill="#263E4B"/>
<path fill-rule="evenodd" clip-rule="evenodd" d="M352.469 49.2718C351.725 49.0523 350.938 48.9346 350.123 48.9346C345.551 48.9346 341.844 52.6455 341.844 57.2231C341.844 61.1126 344.52 64.3763 348.13 65.2697L347.755 72.982C347.655 75.0388 345.944 76.6465 343.885 76.6176L334.058 76.4797C333.427 76.4709 332.801 76.377 332.196 76.2008C328.482 75.1185 326.348 71.2298 327.43 67.5152L338.23 30.4447H339.509L339.514 30.4375L341.012 30.4447H346.621L346.622 30.4717L359.944 30.5358C358.406 37.6102 357.024 42.3377 355.8 44.7182C354.925 46.4179 353.815 47.9358 352.469 49.2718ZM397.728 30.4447C398.981 35.7579 397.041 38.4145 391.906 38.4145C386.772 38.4145 379.07 35.7579 368.8 30.4447H397.728Z" fill="#263E4B"/>
<path fill-rule="evenodd" clip-rule="evenodd" d="M279.866 215.408L323.104 176.881C329.399 171.273 337.564 168.222 345.994 168.331L395.229 168.965C401.954 169.051 407.451 174.355 407.778 181.073C408.087 187.432 403.183 192.837 396.825 193.146C396.681 193.153 396.536 193.157 396.391 193.159L354.708 193.615C352.158 193.643 350.113 195.733 350.141 198.283C350.141 198.285 350.141 198.286 350.141 198.288C350.172 200.87 352.236 202.966 354.817 203.037L397.843 204.216C403.706 204.377 408.384 209.16 408.415 215.025C408.446 220.804 403.785 225.514 398.006 225.544C397.987 225.545 397.969 225.545 397.95 225.545H356.937C354.414 225.545 352.369 227.59 352.369 230.112C352.369 230.131 352.37 230.149 352.37 230.167C352.403 232.941 354.172 235.396 356.792 236.306L383.054 245.423C387.599 247 390.004 251.963 388.426 256.508C388.356 256.71 388.279 256.909 388.194 257.105C386.091 261.973 380.613 264.423 375.583 262.744L332.89 248.498L309.792 263.913C297.946 271.819 281.934 268.625 274.028 256.779C273.285 255.665 272.629 254.495 272.068 253.279C270.056 248.925 269.429 242.686 270.185 234.564C270.873 227.184 274.332 220.339 279.866 215.408Z" fill="white"/>
<path d="M278.145 260.686L286.199 255.503C283.435 252.861 281.204 249.616 279.319 245.842C276.587 240.372 277.485 229.913 281.962 214.398L280.436 215.757C274.984 220.615 271.576 227.363 270.901 234.639C270.156 242.67 270.777 248.819 272.745 253.079C273.293 254.266 273.933 255.409 274.657 256.497C275.689 258.046 276.861 259.444 278.145 260.686ZM278.868 261.358C287.261 268.861 299.958 270.064 309.756 263.525L311.984 262.037C303.13 263.638 295.927 262.331 290.156 258.623C289.006 257.884 287.932 257.066 286.926 256.172L278.868 261.358ZM282.471 212.664C282.471 212.661 282.472 212.659 282.473 212.656C282.527 212.474 282.68 212.348 282.856 212.32L323.034 176.521C329.415 170.834 337.69 167.742 346.233 167.852L395.492 168.486C402.462 168.576 408.16 174.079 408.499 181.05C408.821 187.672 403.72 193.301 397.105 193.623C396.955 193.631 396.804 193.635 396.653 193.637L354.951 194.093C352.668 194.118 350.837 195.991 350.862 198.278L350.862 198.282C350.89 200.607 352.747 202.495 355.069 202.559L398.111 203.738C404.225 203.906 409.104 208.899 409.136 215.022C409.168 221.065 404.3 225.991 398.263 226.022L398.205 226.023H357.175C354.919 226.023 353.09 227.853 353.09 230.112C353.091 230.137 353.09 230.137 353.091 230.161C353.122 232.733 354.76 235.009 357.188 235.852L383.461 244.973C388.248 246.635 390.783 251.867 389.123 256.659C389.049 256.874 388.966 257.086 388.876 257.295C386.674 262.392 380.945 264.956 375.682 263.2L333.203 249.025L310.286 264.32C298.216 272.376 281.909 269.111 273.863 257.028C273.11 255.898 272.447 254.712 271.878 253.48C269.827 249.042 269.191 242.734 269.95 234.55C270.648 227.033 274.168 220.061 279.801 215.042L282.471 212.664ZM283.309 213.197C278.528 229.301 277.501 240.064 280.173 245.414C282.814 250.702 286.14 254.906 290.672 257.818C296.572 261.609 304.041 262.8 313.4 260.782C313.531 260.753 313.66 260.782 313.764 260.85L333.062 247.97L375.984 262.293C380.777 263.892 385.994 261.557 387.999 256.915C388.08 256.728 388.154 256.538 388.22 256.345C389.707 252.052 387.437 247.365 383.148 245.877L356.875 236.756C354.067 235.781 352.171 233.148 352.135 230.173C352.135 230.142 352.135 230.142 352.135 230.112C352.135 227.325 354.392 225.066 357.175 225.066H398.205L398.258 225.066C403.767 225.037 408.21 220.542 408.181 215.027C408.151 209.42 403.684 204.848 398.085 204.694L355.042 203.515C352.208 203.437 349.941 201.132 349.906 198.294L349.906 198.288C349.876 195.474 352.13 193.167 354.941 193.137L396.643 192.68C396.781 192.679 396.92 192.675 397.059 192.668C403.146 192.371 407.841 187.191 407.544 181.096C407.23 174.631 401.945 169.526 395.479 169.443L346.221 168.809C337.916 168.702 329.872 171.707 323.669 177.235L283.309 213.197Z" fill="#263E4B"/>
<path fill-rule="evenodd" clip-rule="evenodd" d="M495.383 180.095L495.389 181.392C495.42 188.003 500.788 193.346 507.399 193.346H516.461C508.974 193.922 504.091 196.366 501.813 200.679C498.226 207.47 500.824 215.884 507.616 219.471C509.618 220.529 511.847 221.081 514.111 221.081H518.054L516.977 221.61C509.399 225.328 506.271 234.485 509.99 242.062C510.214 242.519 510.461 242.964 510.73 243.397C514.35 248.439 521.372 249.592 526.415 245.972C526.752 245.73 527.075 245.469 527.383 245.192L534.413 238.858C538.295 235.361 540.121 230.122 539.255 224.969C539.192 224.594 539.131 224.254 539.071 223.95C538.704 222.092 537.43 219.329 535.249 215.662C536.735 212.686 537.16 209.073 536.523 204.823C535.886 200.572 534.082 196.853 531.11 193.665C532.557 189.954 532.769 185.81 531.746 181.232C531.341 179.419 530.78 177.875 530.064 176.598C528.749 174.256 526.38 172.697 523.709 172.416L505.934 170.55C500.686 169.999 495.986 173.806 495.435 179.053C495.399 179.4 495.381 179.747 495.383 180.095Z" fill="white"/>
<path d="M518.185 220.284L535.115 214.949C536.482 212.102 536.865 208.648 536.255 204.575C535.634 200.432 533.881 196.81 530.989 193.699L530.986 193.825L516.311 193.537C509.194 194.154 504.59 196.513 502.44 200.584C498.978 207.138 501.479 215.262 508.027 218.728C509.959 219.75 512.111 220.284 514.295 220.284H518.185ZM518.436 221.208L517.382 221.725C510.054 225.321 507.025 234.185 510.617 241.521C510.836 241.968 511.077 242.403 511.322 242.799C514.792 247.632 521.519 248.734 526.348 245.26C526.667 245.03 526.974 244.783 527.266 244.52L534.289 238.192C538.056 234.798 539.828 229.71 538.985 224.707C538.924 224.345 538.864 224.018 538.806 223.724C538.464 221.987 537.273 219.375 535.236 215.913L518.436 221.208ZM516.667 192.587L530.985 192.868C532.291 189.328 532.46 185.381 531.485 181.018C531.09 179.251 530.546 177.751 529.854 176.518C528.615 174.308 526.382 172.838 523.865 172.574L506.087 170.707C501.102 170.184 496.637 173.805 496.114 178.795C496.08 179.124 496.064 179.455 496.065 179.785L496.071 181.071C496.101 187.419 501.249 192.55 507.59 192.55H516.666L516.667 192.587ZM501.595 200.137C503.296 196.917 506.373 194.711 510.804 193.506H507.59C500.723 193.506 495.148 187.95 495.116 181.075L495.109 179.79C495.108 179.424 495.126 179.059 495.164 178.695C495.742 173.18 500.677 169.177 506.187 169.756L523.965 171.622C526.79 171.919 529.296 173.57 530.687 176.05C531.427 177.369 532.003 178.956 532.417 180.809C533.434 185.362 533.252 189.509 531.866 193.24C534.783 196.45 536.563 200.184 537.2 204.433C537.834 208.665 537.436 212.297 535.996 215.321C538.123 218.922 539.372 221.652 539.744 223.539C539.803 223.842 539.864 224.178 539.927 224.548C540.824 229.874 538.939 235.29 534.928 238.903L527.905 245.231C527.587 245.517 527.253 245.787 526.905 246.037C521.648 249.819 514.324 248.62 510.528 243.331C510.249 242.881 509.992 242.418 509.76 241.942C506.054 234.375 508.965 225.283 516.245 221.241H514.295C511.955 221.241 509.65 220.668 507.581 219.573C500.566 215.86 497.887 207.158 501.595 200.137ZM507.577 173.253C507.84 173.249 508.057 173.46 508.061 173.724C508.065 173.988 507.854 174.205 507.59 174.209C504.069 174.259 502.507 176.365 502.809 180.776C503.113 185.208 504.681 187.196 507.553 186.995C507.816 186.977 508.045 187.175 508.063 187.439C508.082 187.702 507.883 187.931 507.62 187.949C504.126 188.194 502.192 185.74 501.856 180.842C501.519 175.924 503.457 173.311 507.577 173.253ZM512.142 200.522C512.405 200.499 512.636 200.695 512.658 200.958C512.68 201.221 512.485 201.452 512.222 201.475C508.713 201.77 507.302 203.98 507.911 208.359C508.523 212.758 510.226 214.633 513.077 214.232C513.339 214.195 513.58 214.378 513.617 214.639C513.654 214.901 513.472 215.142 513.211 215.179C509.743 215.667 507.641 213.354 506.965 208.491C506.285 203.608 508.036 200.867 512.142 200.522ZM518.838 228.407C519.096 228.353 519.349 228.519 519.403 228.778C519.457 229.036 519.292 229.289 519.034 229.343C515.587 230.064 514.455 232.43 515.593 236.702C516.737 240.994 518.656 242.647 521.437 241.902C521.692 241.833 521.954 241.985 522.022 242.24C522.091 242.495 521.939 242.757 521.685 242.825C518.302 243.732 515.935 241.693 514.67 236.948C513.401 232.185 514.805 229.251 518.838 228.407Z" fill="#263E4B"/>
<path fill-rule="evenodd" clip-rule="evenodd" d="M105.069 313.973L120.532 475.459H128.493L120.911 312.418C120.712 308.139 117.082 304.833 112.804 305.031C112.673 305.038 112.542 305.047 112.412 305.06C107.925 305.497 104.639 309.485 105.069 313.973Z" fill="white"/>
<path d="M104.595 313.718L120.099 475.636H128.994L121.389 312.095C121.178 307.553 117.325 304.042 112.783 304.254C112.644 304.26 112.505 304.27 112.366 304.284C107.617 304.747 104.14 308.968 104.595 313.718ZM120.967 474.68L105.546 313.627C105.141 309.401 108.234 305.646 112.459 305.234C112.582 305.223 112.704 305.214 112.827 305.208C116.842 305.021 120.248 308.125 120.435 312.139L127.993 474.68H120.967Z" fill="#263E4B"/>
<path d="M116.623 480.12C116.523 480.365 116.245 480.482 116 480.382C115.756 480.282 115.639 480.003 115.739 479.759C122.041 464.35 125.71 453.583 126.742 447.486C126.786 447.225 127.032 447.05 127.292 447.094C127.553 447.138 127.728 447.385 127.684 447.645C126.636 453.833 122.951 464.649 116.623 480.12ZM126.392 426.207C126.476 426.457 126.341 426.728 126.091 426.812C125.841 426.896 125.57 426.761 125.486 426.511C122.682 418.147 117.015 411.011 108.471 405.098C108.255 404.948 108.2 404.65 108.351 404.433C108.501 404.216 108.798 404.162 109.015 404.312C117.722 410.338 123.519 417.639 126.392 426.207ZM119.539 460.077C119.43 460.317 119.147 460.423 118.907 460.314C118.667 460.206 118.56 459.923 118.669 459.682C119.521 457.802 120.092 456.271 120.38 455.094C124.345 438.929 121.887 427.116 114.868 418.72C114.699 418.518 114.726 418.216 114.928 418.047C115.131 417.878 115.432 417.905 115.601 418.107C122.82 426.743 125.343 438.869 121.308 455.322C121.003 456.564 120.414 458.147 119.539 460.077ZM108.28 306.078C108.246 305.817 108.431 305.578 108.693 305.544C108.955 305.511 109.194 305.696 109.227 305.958C113.367 338.405 128.9 355.565 155.894 357.579C156.157 357.599 156.355 357.828 156.335 358.091C156.316 358.354 156.086 358.551 155.823 358.532C128.343 356.481 112.473 338.949 108.28 306.078ZM115.273 305.587C115.249 305.324 115.441 305.091 115.704 305.066C115.966 305.041 116.2 305.234 116.224 305.497C118.938 334.068 131.854 348.964 155.059 350.671C155.322 350.691 155.52 350.92 155.5 351.183C155.481 351.446 155.252 351.643 154.989 351.624C131.283 349.88 118.028 334.593 115.273 305.587Z" fill="#263E4B"/>
<path fill-rule="evenodd" clip-rule="evenodd" d="M369.551 52.1223C368.32 52.1223 367.322 50.9805 367.322 49.572C367.322 48.1635 368.32 47.0217 369.551 47.0217C370.782 47.0217 371.78 48.1635 371.78 49.572C371.78 50.9805 370.782 52.1223 369.551 52.1223ZM389.294 52.1223C388.063 52.1223 387.065 50.9805 387.065 49.572C387.065 48.1635 388.063 47.0217 389.294 47.0217C390.525 47.0217 391.523 48.1635 391.523 49.572C391.523 50.9805 390.525 52.1223 389.294 52.1223ZM365.139 47.3307C364.969 47.5323 364.667 47.5573 364.466 47.3866C364.265 47.2159 364.24 46.9142 364.41 46.7126C364.486 46.6229 364.623 46.4734 364.814 46.2838C365.129 45.9704 365.484 45.6574 365.873 45.3644C367.006 44.5108 368.191 43.9932 369.386 43.9932C371.116 43.9932 372.063 44.407 373.019 45.4569C373.17 45.6227 373.323 45.8039 373.523 46.0518C373.582 46.1247 373.947 46.5794 374.061 46.7197C374.228 46.9244 374.197 47.2256 373.993 47.3924C373.788 47.5592 373.487 47.5285 373.321 47.3237C373.204 47.1801 372.838 46.7243 372.781 46.6543C372.591 46.4194 372.449 46.2508 372.313 46.1011C371.539 45.2512 370.849 44.9495 369.386 44.9495C368.434 44.9495 367.43 45.3883 366.447 46.1286C366.096 46.3935 365.773 46.6782 365.487 46.9626C365.316 47.1316 365.198 47.2611 365.139 47.3307ZM385.53 47.3173C385.367 47.5249 385.067 47.5608 384.859 47.3975C384.652 47.2343 384.616 46.9337 384.779 46.7261C384.85 46.6361 384.977 46.4864 385.154 46.2965C385.448 45.9825 385.778 45.6688 386.14 45.375C387.2 44.5155 388.31 43.9932 389.437 43.9932C391.06 43.9932 391.954 44.4135 392.847 45.4701C392.987 45.6361 393.129 45.8174 393.316 46.0653C393.37 46.1382 393.709 46.593 393.815 46.7332C393.974 46.9438 393.933 47.2437 393.722 47.403C393.512 47.5624 393.212 47.5208 393.053 47.3102C392.945 47.1666 392.605 46.7108 392.553 46.6408C392.376 46.406 392.244 46.2375 392.117 46.0879C391.405 45.2447 390.778 44.9495 389.437 44.9495C388.57 44.9495 387.647 45.3836 386.742 46.118C386.416 46.3821 386.117 46.6662 385.852 46.9499C385.694 47.1186 385.585 47.2478 385.53 47.3173ZM382.178 56.1072H385.937L381.732 45.2822C381.637 45.0361 381.759 44.759 382.004 44.6633C382.25 44.5675 382.527 44.6895 382.623 44.9356L387.081 56.4121C387.203 56.7256 386.972 57.0636 386.636 57.0636H382.178C381.914 57.0636 381.7 56.8495 381.7 56.5854C381.7 56.3213 381.914 56.1072 382.178 56.1072ZM379.856 62.7451C379.623 62.8699 379.334 62.7822 379.209 62.5494C379.084 62.3167 379.172 62.0268 379.405 61.9021C381.135 60.9742 382.801 60.9742 384.338 61.9158C384.563 62.0537 384.633 62.3481 384.496 62.5733C384.358 62.7986 384.064 62.8694 383.839 62.7315C382.601 61.9729 381.296 61.9729 379.856 62.7451Z" fill="#263E4B"/>
<path fill-rule="evenodd" clip-rule="evenodd" d="M28.5 342.833L53.9751 421.574L179.758 404.678V312.547L55.4977 337.427L53.9751 348.252L45.8259 339.363L28.5 342.833Z" fill="white"/>
<path d="M46.1792 338.749C46.0663 338.626 45.8972 338.571 45.7334 338.603L28.4075 342.072C28.1275 342.128 27.9589 342.416 28.0468 342.688L53.5219 421.429C53.593 421.649 53.8111 421.786 54.04 421.756L179.823 404.86C180.06 404.828 180.237 404.625 180.237 404.386V312.256C180.237 311.954 179.961 311.728 179.666 311.787L55.4052 336.667C55.2063 336.707 55.0542 336.868 55.026 337.069L53.6444 346.891L46.1792 338.749ZM45.657 339.593L53.6243 348.283C53.8971 348.581 54.3932 348.427 54.4494 348.027L55.9248 337.537L179.282 312.838V403.968L54.3081 420.756L29.1208 342.904L45.657 339.593Z" fill="#263E4B"/>
<path fill-rule="evenodd" clip-rule="evenodd" d="M0.476562 562.021H42.8289C59.5111 518.556 74.8275 491.418 88.7781 480.609C89.6022 479.97 84.6881 472.891 74.0359 459.37C80.9406 464.836 85.7172 468.343 88.3656 469.89C89.6128 470.619 89.7189 460.205 88.6841 438.649L100.087 473.204C104.428 471.022 107.739 469.492 110.019 468.615C142.076 456.289 168.4 487.424 188.992 562.021H619.521" fill="white"/>
<path d="M88.1257 470.151C88.5801 470.416 88.9899 470.17 89.2136 469.692C89.3588 469.381 89.4706 468.911 89.5612 468.262C89.7338 467.026 89.8326 465.102 89.8593 462.479C89.9066 457.839 89.7281 450.999 89.3239 441.957L99.6344 473.202C99.7258 473.479 100.042 473.61 100.302 473.479C104.631 471.303 107.929 469.779 110.192 468.909C141.871 456.727 168.007 487.64 188.533 561.996C188.59 562.203 188.778 562.347 188.993 562.347H619.522C619.786 562.347 620 562.133 620 561.869C620 561.605 619.786 561.391 619.522 561.391H189.357C168.712 486.806 142.232 455.565 109.849 468.017C107.639 468.867 104.48 470.32 100.368 472.377L89.1387 438.347C88.9645 437.819 88.1814 437.964 88.2081 438.52C88.7251 449.289 88.957 457.274 88.9041 462.47C88.8777 465.054 88.7808 466.944 88.6151 468.13C88.5471 468.616 88.4682 468.975 88.3864 469.195C85.7212 467.599 81.0314 464.146 74.3334 458.844C73.8893 458.492 73.3112 459.069 73.6618 459.514C78.9824 466.267 82.8689 471.41 85.3193 474.94C86.5379 476.696 87.3988 478.049 87.8993 478.994C88.1398 479.447 88.293 479.8 88.3583 480.04C88.371 480.087 88.3796 480.127 88.3846 480.158C74.4041 491.065 59.1278 518.132 42.5018 561.391H0.477658C0.213855 561.391 0 561.605 0 561.869C0 562.133 0.213855 562.347 0.477658 562.347H42.83C43.0278 562.347 43.2051 562.225 43.2759 562.04C59.9282 518.653 75.2117 491.573 89.0718 480.834C89.8549 480.227 88.8959 478.418 86.1041 474.396C84.033 471.412 80.9493 467.292 76.8518 462.035C82.1183 466.131 85.8728 468.834 88.1257 470.151Z" fill="#263E4B"/>
<path d="M374.465 0H356.375C348.247 0 341.649 6.55554 341.568 14.6731L330.828 30.172C330.608 30.4891 330.835 30.9227 331.221 30.9227H403.825C404.246 30.9227 404.461 30.4162 404.168 30.1125L388.634 13.9918C388.53 6.24657 382.227 0 374.465 0ZM342.437 15.0963C342.493 15.0163 342.523 14.9212 342.523 14.8238C342.523 7.16502 348.724 0.956373 356.375 0.956373H374.465C381.764 0.956373 387.68 6.87956 387.68 14.1862C387.68 14.31 387.728 14.4291 387.814 14.5182L402.7 29.9663H332.133L342.437 15.0963Z" fill="#263E4B"/>
<path fill-rule="evenodd" clip-rule="evenodd" d="M387.963 14.5049L341.841 15.1425L338.656 19.9243H393.109L387.963 14.5049Z" fill="#BAD9EA"/>
<path d="M388.278 13.7081L342.156 14.3457C341.999 14.3479 341.853 14.4275 341.765 14.5586L338.581 19.3404C338.369 19.6582 338.597 20.0839 338.978 20.0839H393.431C393.851 20.0839 394.067 19.5808 393.778 19.2762L388.631 13.8568C388.539 13.7601 388.411 13.7063 388.278 13.7081ZM392.318 19.1275H339.871L342.421 15.2985L388.083 14.6673L392.318 19.1275Z" fill="#263E4B"/>
<path fill-rule="evenodd" clip-rule="evenodd" d="M258.734 549.436L253.32 575.577H274.337H355.858C351.156 565.646 345.637 558.739 339.299 554.856C332.961 550.973 321.391 549.167 304.589 549.436L313.187 504.806L261.6 505.124L260.963 538.598L258.734 549.436Z" fill="white"/>
<path fill-rule="evenodd" clip-rule="evenodd" d="M397.253 545.611V575.896L409.991 575.577H491.511C486.81 565.646 481.29 558.739 474.952 554.856C468.614 550.973 457.044 549.167 440.242 549.436L448.203 505.522L392.477 505.125L396.616 538.598L397.253 545.611Z" fill="white"/>
<path fill-rule="evenodd" clip-rule="evenodd" d="M260.963 538.916C265.838 539.706 269.659 542.787 272.426 548.161C275.193 553.535 276.679 560.761 276.884 569.839L254.594 569.52" fill="#BAD9EA"/>
<path fill-rule="evenodd" clip-rule="evenodd" d="M397.25 538.916C405.947 540.981 411.679 544.7 414.446 550.074C417.213 555.447 418.486 562.036 418.267 569.839L397.25 569.52V538.916Z" fill="#BAD9EA"/>
<path d="M276.804 504.871L280.35 480.417H272.746V479.462H280.489L282.384 466.39H275.612V465.435H312.551V466.39H305.146L302.724 479.462H309.685V480.417H302.547L298.041 504.74L313.767 504.643L306.723 541.208L309.155 534.537C309.258 534.257 309.385 533.986 309.536 533.729C310.917 531.376 313.944 530.588 316.297 531.969C316.694 532.201 317.051 532.495 317.355 532.839C318.953 534.643 318.786 537.4 316.982 538.997L305.66 549.023C307.791 548.493 313.023 547.149 320.71 545.148C320.965 545.082 321.226 545.235 321.292 545.49C321.359 545.745 321.206 546.006 320.95 546.073C315.351 547.53 311.313 548.575 308.648 549.253C323.351 549.32 333.643 551.149 339.549 554.767C345.976 558.704 351.552 565.682 356.29 575.691L356.613 576.373H252.734L258.267 549.659L260.487 538.863L261.132 504.968L276.804 504.871ZM277.77 504.865L287.008 504.808L290.741 480.417H281.315L277.77 504.865ZM287.975 504.802L297.068 504.746L301.576 480.417H291.708L287.975 504.802ZM304.994 550.226C304.953 550.234 304.911 550.237 304.869 550.234L294.095 550.551C293.832 550.559 293.612 550.351 293.604 550.088C293.596 549.824 293.803 549.604 294.067 549.596L303.689 549.313L292.041 538.997C290.237 537.4 290.07 534.643 291.667 532.839C291.972 532.495 292.329 532.201 292.725 531.969C295.078 530.588 298.105 531.376 299.486 533.729C299.637 533.986 299.765 534.257 299.867 534.537L304.511 547.272L304.66 546.863L312.608 505.605L262.069 505.918L261.448 538.558C271.364 541.505 277.049 551.709 277.356 569.042H351.637C347.876 562.902 343.679 558.417 339.05 555.581C332.859 551.789 321.498 549.992 304.994 550.226ZM305.584 547.119L305.422 547.958L316.348 538.282C317.757 537.035 317.888 534.881 316.64 533.472C316.402 533.204 316.123 532.974 315.814 532.793C313.916 531.679 311.474 532.314 310.36 534.213C310.238 534.42 310.135 534.638 310.053 534.864L305.584 547.119ZM352.211 569.997H255.03L253.908 575.418H355.1C354.168 573.493 353.205 571.686 352.211 569.997ZM255.228 569.042H276.401C276.098 552.182 270.665 542.384 261.327 539.519L259.202 549.852L255.228 569.042ZM298.97 534.864C298.887 534.638 298.784 534.42 298.663 534.213C297.549 532.314 295.107 531.679 293.208 532.793C292.899 532.974 292.62 533.204 292.382 533.472C291.135 534.881 291.265 537.035 292.674 538.282L303.814 548.147L298.97 534.864ZM304.175 466.39H293.854L291.854 479.462H301.753L304.175 466.39ZM292.888 466.39H283.349L281.454 479.462H290.887L292.888 466.39Z" fill="#263E4B"/>
<path fill-rule="evenodd" clip-rule="evenodd" d="M256.821 164.655H246.312L257.776 146.484" fill="#BAD9EA"/>
<path d="M403.668 504.71L400.146 480.417H394.067V479.462H400.007L398.112 466.39H392.156V465.435H430.688V466.39H422.459L423.775 479.462H431.006V480.417H423.871L426.33 504.84L448.768 504.968L441.504 547.084L446.08 534.537C446.182 534.257 446.31 533.986 446.461 533.729C447.842 531.376 450.869 530.588 453.222 531.969C453.618 532.201 453.976 532.495 454.28 532.839C455.878 534.643 455.71 537.4 453.906 538.997L443.092 548.575C445.786 547.89 450.314 546.722 456.361 545.148C456.616 545.082 456.877 545.235 456.943 545.49C457.01 545.745 456.857 546.006 456.601 546.073C451.005 547.529 446.969 548.574 444.304 549.251C459.174 549.294 469.571 551.123 475.518 554.767C481.945 558.704 487.522 565.682 492.26 575.691L492.582 576.373H396.778L396.774 575.9L396.46 538.978L391.93 504.643L403.668 504.71ZM404.634 504.716L414.227 504.771L412.069 480.417H401.111L404.634 504.716ZM415.186 504.776L425.37 504.834L422.911 480.417H413.028L415.186 504.776ZM397.35 538.448C411.184 541.236 418.324 551.483 418.737 569.042H487.606C483.845 562.902 479.648 558.417 475.019 555.581C468.851 551.803 457.549 550.005 441.143 550.224C441.079 550.238 441.015 550.238 440.953 550.226C440.84 550.228 440.726 550.23 440.613 550.232C440.582 550.235 440.551 550.236 440.52 550.234L429.746 550.551C429.483 550.559 429.263 550.351 429.255 550.088C429.247 549.824 429.454 549.604 429.718 549.596L439.34 549.313L427.692 538.997C425.888 537.4 425.721 534.643 427.318 532.839C427.623 532.495 427.98 532.201 428.376 531.969C430.729 530.588 433.756 531.376 435.137 533.729C435.288 533.986 435.416 534.257 435.518 534.537L440.393 547.906L447.635 505.917L393.02 505.605L397.35 538.448ZM397.415 539.437L397.67 569.042H417.781C417.376 552.021 410.599 542.201 397.415 539.437ZM488.18 569.997H397.678L397.725 575.418H491.07C490.138 573.493 489.174 571.686 488.18 569.997ZM434.621 534.864C434.538 534.638 434.435 534.42 434.314 534.213C433.2 532.314 430.758 531.679 428.859 532.793C428.55 532.974 428.271 533.204 428.033 533.472C426.786 534.881 426.916 537.035 428.325 538.282L439.465 548.147L434.621 534.864ZM446.978 534.864L442.134 548.147L453.273 538.282C454.682 537.035 454.813 534.881 453.565 533.472C453.327 533.204 453.048 532.974 452.739 532.793C450.84 531.679 448.399 532.314 447.285 534.213C447.163 534.42 447.06 534.638 446.978 534.864ZM421.498 466.39H411.785L412.943 479.462H422.815L421.498 466.39ZM410.826 466.39H399.077L400.973 479.462H411.984L410.826 466.39Z" fill="#263E4B"/>
<path d="M92.9215 376.933L93.8615 382.867L88.4014 383.732L89.1064 388.183L82.0864 389.295L81.3814 384.844L62.1153 387.895L61.1753 381.961L77.7577 361.964L84.7777 360.853L87.4615 377.797L92.9215 376.933ZM68.7414 380.762L80.4415 378.909L78.8708 368.992L68.7414 380.762ZM112.451 384.886C101.609 386.603 95.6698 382.421 94.2289 373.324C92.7943 364.266 97.1569 358.492 107.999 356.774C118.802 355.063 124.781 359.239 126.209 368.258C127.644 377.317 123.254 383.175 112.451 384.886ZM111.518 378.99C117.68 378.014 119.999 374.485 119.189 369.37C118.385 364.295 115.095 361.694 108.933 362.67C102.771 363.646 100.439 367.097 101.249 372.212C102.065 377.366 105.356 379.966 111.518 378.99ZM160.782 366.185L161.722 372.119L156.262 372.984L156.967 377.435L149.947 378.547L149.242 374.096L129.976 377.147L129.036 371.213L145.618 351.216L152.638 350.105L155.322 367.049L160.782 366.185ZM136.602 370.014L148.302 368.161L146.731 358.244L136.602 370.014Z" fill="#BAD9EA"/>
<path d="M93.6307 376.073L94.7201 382.951L89.2601 383.816L89.965 388.267L82.0014 389.528L81.2965 385.077L62.0303 388.128L60.9819 381.509L77.8171 361.208L85.4869 359.993L88.1707 376.938L93.6307 376.073ZM87.3766 378.031L84.6928 361.086L78.3225 362.095L61.993 381.786L62.8245 387.035L82.0906 383.984L82.7955 388.435L88.872 387.473L88.1671 383.022L93.6271 382.157L92.8366 377.166L87.3766 378.031ZM67.842 381.125L79.4934 367.586L81.3001 378.993L67.842 381.125ZM80.2071 378.199L78.8724 369.772L70.265 379.774L80.2071 378.199ZM112.838 385.044C101.938 386.77 95.5807 382.628 94.0693 373.085C92.5647 363.586 97.3323 357.716 108.236 355.989C119.1 354.269 125.494 358.409 126.993 367.87C128.498 377.376 123.698 383.324 112.838 385.044ZM112.689 384.101C123.047 382.46 127.469 376.981 126.049 368.02C124.637 359.103 118.75 355.291 108.386 356.933C97.9815 358.581 93.5946 363.981 95.0128 372.936C96.4381 381.935 102.29 385.748 112.689 384.101ZM111.904 379.149C105.678 380.135 101.977 377.575 101.089 371.973C100.209 366.415 102.94 362.872 109.17 361.885C115.385 360.901 119.097 363.449 119.973 368.982C120.856 374.559 118.117 378.165 111.904 379.149ZM111.755 378.205C117.455 377.302 119.829 374.178 119.029 369.132C118.237 364.131 115.024 361.925 109.32 362.828C103.599 363.734 101.237 366.799 102.033 371.824C102.836 376.894 106.04 379.11 111.755 378.205ZM161.491 365.325L162.581 372.203L157.12 373.068L157.825 377.519L149.862 378.78L149.157 374.329L129.891 377.38L128.842 370.761L145.678 350.459L153.347 349.245L156.031 366.19L161.491 365.325ZM155.237 367.283L152.553 350.338L146.183 351.347L129.853 371.038L130.685 376.287L149.951 373.236L150.656 377.687L156.732 376.725L156.027 372.274L161.488 371.409L160.697 366.418L155.237 367.283ZM135.702 370.376L147.354 356.838L149.16 368.245L135.702 370.376ZM148.068 367.451L146.733 359.024L138.125 369.025L148.068 367.451Z" fill="#263E4B"/>
<path d="M257.648 145.972C257.706 145.754 257.755 145.552 257.796 145.366L258.318 134.341C259.184 116.066 274.236 101.694 292.512 101.694H328.466V102.651H292.512C274.746 102.651 260.114 116.621 259.272 134.387L259.12 137.592C260.809 131.109 264.065 125.31 268.893 120.329C276.171 112.822 285.185 116.564 295.736 131.222C295.89 131.436 295.841 131.735 295.627 131.889C295.413 132.044 295.115 131.995 294.96 131.781C284.707 117.535 276.312 114.051 269.579 120.995C263.242 127.532 259.685 135.502 258.885 144.614C258.863 144.867 258.816 145.159 258.746 145.49L257.294 176.155L256.34 176.109L256.875 164.815H246.627C246.251 164.815 246.022 164.4 246.223 164.081L257.648 145.972ZM256.92 163.859L257.685 147.704L247.493 163.859H256.92Z" fill="#263E4B"/>
<path d="M398.626 188.773C398.362 188.763 398.157 188.541 398.167 188.277C398.177 188.013 398.399 187.807 398.662 187.817C402.181 187.952 403.852 185.93 403.781 181.509C403.709 177.068 402.247 175 399.368 175.051C399.105 175.055 398.887 174.845 398.883 174.581C398.878 174.317 399.088 174.099 399.352 174.094C402.853 174.033 404.657 176.585 404.736 181.494C404.815 186.423 402.743 188.93 398.626 188.773ZM397.607 222.41C397.344 222.386 397.151 222.154 397.174 221.891C397.198 221.628 397.431 221.434 397.693 221.458C401.2 221.776 402.975 219.845 403.135 215.426C403.296 210.987 401.944 208.846 399.067 208.745C398.803 208.736 398.597 208.515 398.606 208.251C398.615 207.987 398.836 207.78 399.1 207.79C402.6 207.912 404.268 210.554 404.09 215.461C403.911 220.387 401.71 222.783 397.607 222.41ZM376.727 259.631C376.486 259.525 376.376 259.243 376.482 259.001C376.588 258.759 376.869 258.649 377.111 258.755C380.357 260.178 382.521 259.244 383.831 255.848C385.15 252.428 384.458 250.318 381.748 249.278C381.502 249.184 381.379 248.907 381.474 248.661C381.568 248.414 381.845 248.291 382.091 248.385C385.339 249.632 386.218 252.314 384.723 256.192C383.218 260.092 380.477 261.274 376.727 259.631ZM342.336 132.334L343.259 132.581C341.516 139.123 337.88 142.983 332.383 144.084L332.195 143.146C337.312 142.122 340.682 138.544 342.336 132.334Z" fill="#263E4B"/>
<path d="M288.837 145.014L290.11 149.795C290.178 150.051 290.44 150.202 290.695 150.134C290.95 150.066 291.101 149.804 291.033 149.549L289.76 144.767C289.692 144.512 289.43 144.36 289.175 144.428C288.92 144.496 288.769 144.758 288.837 145.014Z" fill="#263E4B"/>
<path d="M289.191 145.356L293.33 146.313C293.587 146.372 293.844 146.212 293.903 145.954C293.963 145.697 293.802 145.44 293.545 145.381L289.405 144.424C289.148 144.365 288.892 144.526 288.833 144.783C288.773 145.04 288.934 145.297 289.191 145.356Z" fill="#263E4B"/>
<path d="M468.944 148.384C465.723 144.495 460.124 144.084 455.509 147.124C453.711 148.308 452.399 149.995 451.783 151.923C450.23 156.78 456.331 169.192 470.094 189.471C470.242 189.69 470.54 189.746 470.758 189.598C470.976 189.449 471.033 189.152 470.884 188.934C457.345 168.984 451.278 156.641 452.693 152.214C453.241 150.499 454.415 148.989 456.034 147.923C460.266 145.136 465.32 145.507 468.208 148.994C468.377 149.197 468.678 149.225 468.881 149.057C469.084 148.888 469.112 148.587 468.944 148.384Z" fill="#263E4B"/>
</svg>
