<svg width="80" height="80" viewBox="0 0 80 80" fill="none" xmlns="http://www.w3.org/2000/svg">
<path d="M52.6824 36.497C53.8973 35.7964 54.7171 34.4883 54.7171 32.9865C54.7171 30.7505 52.906 28.9355 50.6662 28.9355C48.4265 28.9355 46.6153 30.7467 46.6153 32.9865C46.6153 34.4883 47.4351 35.7964 48.6501 36.497C46.8016 36.6834 45.3594 38.2449 45.3594 40.1418V47.0026C45.3594 47.8225 46.0227 48.4858 46.8426 48.4858H54.4898C55.3097 48.4858 55.973 47.8225 55.973 47.0026V40.1418C55.973 38.2449 54.5308 36.6834 52.6824 36.497Z" fill="#5182F6"/>
<path d="M42.07 39.0713C43.285 38.3706 44.1048 37.0626 44.1048 35.5607C44.1048 33.3247 42.2937 31.5098 40.0539 31.5098C37.8142 31.5098 36.003 33.3209 36.003 35.5607C36.003 37.0626 36.8228 38.3706 38.0378 39.0713C36.1893 39.2576 34.7471 40.8191 34.7471 42.716V49.5768C34.7471 50.3967 35.4104 51.0601 36.2303 51.0601H43.8775C44.6974 51.0601 45.3607 50.3967 45.3607 49.5768V42.716C45.3607 40.8191 43.9185 39.2576 42.07 39.0713Z" fill="#5182F6"/>
<path d="M31.4597 36.497C32.6746 35.7964 33.4945 34.4883 33.4945 32.9865C33.4945 30.7505 31.6833 28.9355 29.4436 28.9355C27.2038 28.9355 25.3926 30.7467 25.3926 32.9865C25.3926 34.4883 26.2125 35.7964 27.4274 36.497C25.579 36.6834 24.1367 38.2449 24.1367 40.1418V47.0026C24.1367 47.8225 24.8001 48.4858 25.6199 48.4858H33.2671C34.087 48.4858 34.7504 47.8225 34.7504 47.0026V40.1418C34.7504 38.2449 33.3081 36.6834 31.4597 36.497Z" fill="#5182F6"/>
<path d="M63.0121 52.8721V26.7292L40.3723 13.6597L17.7363 26.7292V52.8721L40.3723 65.9416L63.0121 52.8721Z" stroke="#5182F6" stroke-width="4" stroke-miterlimit="10"/>
<path d="M40.373 18.2733C42.6576 18.2733 44.5096 16.4213 44.5096 14.1366C44.5096 11.852 42.6576 10 40.373 10C38.0884 10 36.2363 11.852 36.2363 14.1366C36.2363 16.4213 38.0884 18.2733 40.373 18.2733Z" fill="#5182F6"/>
<path d="M62.9755 30.5301C65.2601 30.5301 67.1122 28.6781 67.1122 26.3935C67.1122 24.1089 65.2601 22.2568 62.9755 22.2568C60.6909 22.2568 58.8389 24.1089 58.8389 26.3935C58.8389 28.6781 60.6909 30.5301 62.9755 30.5301Z" fill="#5182F6"/>
<path d="M17.7734 57.1087C20.058 57.1087 21.91 55.2567 21.91 52.9721C21.91 50.6875 20.058 48.8354 17.7734 48.8354C15.4888 48.8354 13.6367 50.6875 13.6367 52.9721C13.6367 55.2567 15.4888 57.1087 17.7734 57.1087Z" fill="#5182F6"/>
<path d="M62.4941 56.6288C64.7787 56.6288 66.6307 54.7767 66.6307 52.4921C66.6307 50.2075 64.7787 48.3555 62.4941 48.3555C60.2095 48.3555 58.3574 50.2075 58.3574 52.4921C58.3574 54.7767 60.2095 56.6288 62.4941 56.6288Z" fill="#5182F6"/>
<path d="M17.1366 30.369C19.4213 30.369 21.2733 28.517 21.2733 26.2323C21.2733 23.9477 19.4213 22.0957 17.1366 22.0957C14.852 22.0957 13 23.9477 13 26.2323C13 28.517 14.852 30.369 17.1366 30.369Z" fill="#5182F6"/>
<path d="M40.373 69.9994C42.6576 69.9994 44.5096 68.1473 44.5096 65.8627C44.5096 63.5781 42.6576 61.7261 40.373 61.7261C38.0884 61.7261 36.2363 63.5781 36.2363 65.8627C36.2363 68.1473 38.0884 69.9994 40.373 69.9994Z" fill="#5182F6"/>
</svg>
