<svg width="80" height="80" viewBox="0 0 80 80" fill="none" xmlns="http://www.w3.org/2000/svg">
<path d="M55.1261 57.1147L54.162 58.0787C53.469 58.7717 53.469 59.8953 54.162 60.5883L62.3179 68.7442C63.0109 69.4372 64.1344 69.4372 64.8274 68.7442L65.7915 67.7801C66.4845 67.0871 66.4845 65.9636 65.7915 65.2706L57.6356 57.1147C56.9426 56.4217 55.8191 56.4217 55.1261 57.1147Z" fill="#5182F6"/>
<path d="M51.7604 53.305L50.3848 54.6807L54.0454 58.3413L55.4211 56.9657L51.7604 53.305Z" fill="#5182F6"/>
<path d="M44.9323 39.3247C40.2885 39.3247 36.5156 43.1016 36.5156 47.7413C36.5156 52.3811 40.2925 56.158 44.9323 56.158C49.572 56.158 53.3489 52.3811 53.3489 47.7413C53.3489 43.1016 49.572 39.3247 44.9323 39.3247Z" fill="#5182F6"/>
<path d="M44.7411 37.5264C39.1246 37.5264 34.5703 42.0806 34.5703 47.6971C34.5703 53.3137 39.1246 57.8679 44.7411 57.8679C50.3576 57.8679 54.9119 53.3137 54.9119 47.6971C54.9119 42.0806 50.3576 37.5264 44.7411 37.5264ZM44.9324 56.1626C40.2804 56.1626 36.5157 52.3898 36.5157 47.746C36.5157 43.1022 40.2886 39.3293 44.9324 39.3293C49.5762 39.3293 53.349 43.1022 53.349 47.746C53.349 52.3898 49.5762 56.1626 44.9324 56.1626Z" fill="#5182F6"/>
<path d="M52.7755 59.1038L51.233 57.5613C49.3242 58.8637 47.0206 59.6288 44.542 59.6288C37.9853 59.6288 32.6497 54.2931 32.6497 47.7365C32.6497 41.1798 37.9853 35.8441 44.542 35.8441C48.5631 35.8441 52.1243 37.8547 54.2773 40.9193V22.4866L41.4611 10H13V60.8742H52.8081C52.629 60.3004 52.6127 59.6858 52.7755 59.1038ZM41.4896 12.442L51.6644 22.6168H41.4896V12.442ZM21.5469 26.2798H45.9665V28.7217H21.5469V26.2798ZM21.5469 31.9777H45.9665V34.4196H21.5469V31.9777ZM21.5469 37.6756H35.519C34.5829 38.3715 33.7526 39.1937 33.0444 40.1175H21.5469V37.6756ZM17.2734 57.6183C16.7118 57.6183 16.2559 57.1624 16.2559 56.6008C16.2559 56.0391 16.7118 55.5833 17.2734 55.5833C17.8351 55.5833 18.2909 56.0391 18.2909 56.6008C18.2909 57.1624 17.8351 57.6183 17.2734 57.6183ZM17.2734 50.6994C16.7118 50.6994 16.2559 50.2435 16.2559 49.6819C16.2559 49.1202 16.7118 48.6644 17.2734 48.6644C17.8351 48.6644 18.2909 49.1202 18.2909 49.6819C18.2909 50.2435 17.8351 50.6994 17.2734 50.6994ZM17.2734 43.7805C16.7118 43.7805 16.2559 43.3246 16.2559 42.763C16.2559 42.2013 16.7118 41.7455 17.2734 41.7455C17.8351 41.7455 18.2909 42.2013 18.2909 42.763C18.2909 43.3246 17.8351 43.7805 17.2734 43.7805ZM17.2734 36.8616C16.7118 36.8616 16.2559 36.4058 16.2559 35.8441C16.2559 35.2825 16.7118 34.8266 17.2734 34.8266C17.8351 34.8266 18.2909 35.2825 18.2909 35.8441C18.2909 36.4058 17.8351 36.8616 17.2734 36.8616ZM17.2734 29.9427C16.7118 29.9427 16.2559 29.4869 16.2559 28.9252C16.2559 28.3636 16.7118 27.9077 17.2734 27.9077C17.8351 27.9077 18.2909 28.3636 18.2909 28.9252C18.2909 29.4869 17.8351 29.9427 17.2734 29.9427ZM17.2734 23.0238C16.7118 23.0238 16.2559 22.568 16.2559 22.0063C16.2559 21.4447 16.7118 20.9888 17.2734 20.9888C17.8351 20.9888 18.2909 21.4447 18.2909 22.0063C18.2909 22.568 17.8351 23.0238 17.2734 23.0238ZM17.2734 16.1049C16.7118 16.1049 16.2559 15.6491 16.2559 15.0874C16.2559 14.5258 16.7118 14.0699 17.2734 14.0699C17.8351 14.0699 18.2909 14.5258 18.2909 15.0874C18.2909 15.6491 17.8351 16.1049 17.2734 16.1049ZM21.5469 51.5134V49.0714H30.5862C30.6839 49.9139 30.863 50.7319 31.1194 51.5134H21.5469ZM30.6391 45.8154H21.5469V43.3735H31.2577C30.9728 44.1549 30.7612 44.9689 30.6391 45.8154Z" fill="#5182F6"/>
</svg>
