<svg width="17" height="16" viewBox="0 0 17 16" fill="none" xmlns="http://www.w3.org/2000/svg">
<path fill-rule="evenodd" clip-rule="evenodd" d="M4.00001 5.99987C4.00008 3.51465 6.01477 1.5 8.50001 1.5C10.9853 1.5 13 3.51472 13 6L12.9999 6.03279V6.5C12.9999 7.91542 13.5339 9.20494 14.4122 10.1799C14.5232 10.3031 14.5659 10.4734 14.5262 10.6344C14.4865 10.7954 14.3695 10.9262 14.2139 10.9836C13.1846 11.3636 12.107 11.6439 10.9931 11.8128C10.9977 11.8746 11 11.9371 11 12C11 13.3807 9.88072 14.5 8.50001 14.5C7.1193 14.5 6.00001 13.3807 6.00001 12C6.00001 11.9371 6.00234 11.8747 6.00693 11.8128C4.89289 11.644 3.81525 11.3637 2.78583 10.9836C2.63026 10.9262 2.51328 10.7954 2.47355 10.6344C2.43382 10.4734 2.47651 10.3031 2.58751 10.1799C3.46586 9.20494 3.99988 7.91542 3.99988 6.5L4.00001 5.99987ZM7.00148 11.9328C7.0005 11.9551 7.00001 11.9775 7.00001 12C7.00001 12.8284 7.67158 13.5 8.50001 13.5C9.32843 13.5 10 12.8284 10 12C10 11.9775 9.99951 11.9551 9.99854 11.9328C9.50482 11.9773 9.00494 12 8.49988 12C7.9949 12 7.49511 11.9773 7.00148 11.9328Z" fill="#232323"/>
</svg>
