<svg width="32" height="24" viewBox="0 0 32 24" fill="none" xmlns="http://www.w3.org/2000/svg">
<g clip-path="url(#clip0_4280_22586)">
<path fill-rule="evenodd" clip-rule="evenodd" d="M0 0H45.6V1.85H0V0ZM0 3.695H45.6V5.545H0V3.695ZM0 7.385H45.6V9.235H0V7.385ZM0 11.075H45.6V12.925H0V11.075ZM0 14.775H45.6V16.615H0V14.775ZM0 18.46H45.6V20.31H0V18.46ZM0 22.15H45.6V24H0V22.15Z" fill="#BD3D44"/>
<path fill-rule="evenodd" clip-rule="evenodd" d="M0 1.8501H45.6V3.6951H0V1.8501ZM0 5.5401H45.6V7.3851H0V5.5401ZM0 9.2301H45.6V11.0801H0V9.2301ZM0 12.9251H45.6V14.7751H0V12.9251ZM0 16.6151H45.6V18.4651H0V16.6151ZM0 20.3051H45.6V22.1551H0V20.3051Z" fill="white"/>
<path fill-rule="evenodd" clip-rule="evenodd" d="M0 0H18.24V12.925H0V0Z" fill="#192F5D"/>
<path fill-rule="evenodd" clip-rule="evenodd" d="M1.52043 0.550049L1.69043 1.06505H2.22043L1.79043 1.38005L1.95543 1.89505L1.52043 1.57505L1.09043 1.89005L1.25043 1.38005L0.81543 1.06505H1.36043L1.52043 0.550049ZM4.56043 0.550049L4.72543 1.06505H5.26543L4.83043 1.38005L4.99043 1.89505L4.56043 1.57505L4.12543 1.89005L4.29043 1.38005L3.86043 1.06505H4.39043L4.56043 0.550049ZM7.60043 0.550049L7.76543 1.06505H8.30043L7.87043 1.38005L8.03543 1.89505L7.60043 1.57505L7.16543 1.89005L7.33043 1.38005L6.89543 1.06505H7.43543L7.60043 0.550049ZM10.6404 0.550049L10.8054 1.06505H11.3454L10.9104 1.38005L11.0754 1.89505L10.6404 1.57505L10.2054 1.89005L10.3754 1.38005L9.93543 1.06505H10.4704L10.6404 0.550049ZM13.6804 0.550049L13.8454 1.06505H14.3804L13.9504 1.38005L14.1154 1.89505L13.6804 1.57505L13.2454 1.89005L13.4104 1.38005L12.9804 1.06505H13.5154L13.6804 0.550049ZM16.7204 0.550049L16.8854 1.06505H17.4254L16.9854 1.38005L17.1554 1.89505L16.7204 1.57505L16.2854 1.89005L16.4554 1.38005L16.0154 1.06505H16.5554L16.7204 0.550049ZM3.04043 1.85005L3.20543 2.36005H3.75043L3.31543 2.67005L3.47543 3.18505L3.05043 2.87005L2.61543 3.18505L2.77043 2.67005L2.35043 2.36005H2.88543L3.04043 1.85005ZM6.08043 1.85005L6.25043 2.36005H6.78543L6.34543 2.67005L6.51543 3.18505L6.08043 2.87005L5.64543 3.18505L5.81043 2.67005L5.37543 2.36005H5.91543L6.08043 1.85005ZM9.12043 1.85005L9.28543 2.36005H9.82543L9.39043 2.67005L9.55543 3.18505L9.12043 2.87005L8.68543 3.18505L8.85043 2.67005L8.42043 2.36005H8.95043L9.12043 1.85005ZM12.1604 1.85005L12.3304 2.36005H12.8654L12.4254 2.67005L12.5954 3.18505L12.1604 2.87005L11.7304 3.18505L11.8904 2.67005L11.4554 2.36005H12.0004L12.1604 1.85005ZM15.2004 1.85005L15.3654 2.36005H15.9054L15.4704 2.67005L15.6354 3.18505L15.2004 2.87005L14.7654 3.18505L14.9304 2.67005L14.5004 2.36005H15.0354L15.2004 1.85005ZM1.52043 3.13005L1.69043 3.65005H2.22043L1.79043 3.96505L1.95543 4.47505L1.52043 4.16005L1.09043 4.47505L1.25043 3.96505L0.81543 3.65005H1.36043L1.52043 3.13005ZM4.56043 3.13005L4.72543 3.65005H5.26543L4.83043 3.96505L4.99043 4.47505L4.56043 4.16005L4.12543 4.47505L4.29043 3.96005L3.86043 3.64505H4.39043L4.56043 3.13005ZM7.60043 3.13005L7.76543 3.64505H8.30043L7.87043 3.96005L8.03543 4.47005L7.60043 4.15505L7.16543 4.47005L7.33043 3.95505L6.89543 3.64005H7.43543L7.60043 3.13005ZM10.6404 3.13005L10.8054 3.64505H11.3454L10.9104 3.96005L11.0754 4.47005L10.6404 4.15505L10.2054 4.47005L10.3754 3.95505L9.93543 3.64005H10.4704L10.6404 3.13005ZM13.6804 3.13005L13.8454 3.64505H14.3804L13.9504 3.96005L14.1154 4.47005L13.6804 4.15505L13.2454 4.47005L13.4104 3.95505L12.9804 3.64005H13.5154L13.6804 3.13005ZM16.7204 3.13005L16.8854 3.64505H17.4254L16.9854 3.96005L17.1554 4.47005L16.7204 4.15505L16.2854 4.47005L16.4554 3.95505L16.0154 3.64005H16.5554L16.7204 3.13005ZM3.04043 4.43005L3.20543 4.94005H3.75043L3.31543 5.25505L3.48043 5.77005L3.04543 5.45005L2.61043 5.76505L2.77543 5.25505L2.34543 4.94005H2.88043L3.04043 4.43005ZM6.08043 4.43005L6.25043 4.94005H6.78543L6.34543 5.25505L6.51543 5.77005L6.08043 5.45005L5.64543 5.76505L5.81043 5.25505L5.37543 4.94005H5.91543L6.08043 4.43005ZM9.12043 4.43005L9.28543 4.94005H9.82543L9.39043 5.25505L9.55543 5.77005L9.12043 5.45005L8.68543 5.76505L8.85043 5.25505L8.42043 4.94005H8.95043L9.12043 4.43005ZM12.1604 4.43005L12.3304 4.94005H12.8654L12.4304 5.25505L12.5954 5.77005L12.1604 5.45005L11.7304 5.76505L11.8904 5.25505L11.4554 4.94005H12.0004L12.1604 4.43005ZM15.2004 4.43005L15.3654 4.94005H15.9054L15.4704 5.25505L15.6354 5.77005L15.2004 5.45005L14.7654 5.76505L14.9304 5.25505L14.5004 4.94005H15.0354L15.2004 4.43005ZM1.52043 5.72505L1.69043 6.23505H2.22043L1.79043 6.55005L1.95543 7.06505L1.52043 6.74505L1.09043 7.06005L1.25043 6.55005L0.81543 6.23505H1.36043L1.52043 5.72505ZM4.56043 5.72505L4.72543 6.23505H5.26543L4.83043 6.55005L4.99043 7.06005L4.56043 6.74505L4.12543 7.06005L4.29043 6.55005L3.86043 6.23505H4.39043L4.56043 5.72505ZM7.60043 5.72505L7.76543 6.23505H8.30043L7.87043 6.55005L8.03543 7.06505L7.60043 6.74505L7.16543 7.06005L7.33043 6.55005L6.89543 6.23505H7.43543L7.60043 5.72505ZM10.6404 5.72505L10.8054 6.23505H11.3454L10.9104 6.55005L11.0754 7.06505L10.6404 6.74505L10.2054 7.06005L10.3754 6.55005L9.93543 6.23505H10.4704L10.6404 5.72505ZM13.6804 5.72505L13.8454 6.23505H14.3804L13.9504 6.55005L14.1154 7.06505L13.6804 6.74505L13.2454 7.06005L13.4104 6.55005L12.9804 6.23505H13.5154L13.6804 5.72505ZM16.7204 5.72505L16.8854 6.23505H17.4254L16.9854 6.55005L17.1554 7.06505L16.7204 6.74505L16.2854 7.06005L16.4504 6.55005L16.0104 6.23505H16.5504L16.7204 5.72505ZM3.04043 7.01505L3.20543 7.53005H3.75043L3.31543 7.84005L3.48043 8.35505L3.04543 8.03505L2.61043 8.35505L2.77543 7.84005L2.34543 7.52505H2.88043L3.04043 7.01505ZM6.08043 7.01505L6.25043 7.53005H6.78543L6.34543 7.84005L6.51543 8.35505L6.08043 8.03505L5.64543 8.35505L5.81043 7.84005L5.37543 7.52505H5.91543L6.08043 7.01505ZM9.12043 7.01505L9.28543 7.53005H9.82543L9.39043 7.84005L9.55543 8.35505L9.12043 8.03505L8.68543 8.35505L8.85043 7.84005L8.42043 7.52505H8.95043L9.12043 7.01505ZM12.1604 7.01505L12.3304 7.53005H12.8654L12.4304 7.84005L12.5954 8.35505L12.1604 8.03505L11.7304 8.35505L11.8904 7.84005L11.4554 7.52505H12.0004L12.1604 7.01505ZM15.2004 7.01505L15.3654 7.53005H15.9054L15.4704 7.84005L15.6354 8.35505L15.2004 8.03505L14.7654 8.35505L14.9304 7.84005L14.5004 7.52505H15.0354L15.2004 7.01505ZM1.52043 8.30505L1.69043 8.82005H2.22043L1.79043 9.13505L1.95543 9.64005L1.52043 9.33005L1.09043 9.64005L1.25043 9.13005L0.81543 8.81505H1.36043L1.52043 8.30505ZM4.56043 8.30505L4.72543 8.82005H5.26543L4.83043 9.13505L4.99543 9.64005L4.56043 9.33005L4.12543 9.64005L4.29543 9.13005L3.86043 8.81505H4.39043L4.56043 8.30505ZM7.60043 8.30505L7.76543 8.82005H8.30043L7.87043 9.13505L8.03543 9.64005L7.60043 9.33005L7.16543 9.64005L7.33043 9.13005L6.89543 8.81505H7.43543L7.60043 8.30505ZM10.6404 8.30505L10.8054 8.82005H11.3454L10.9104 9.13505L11.0754 9.64005L10.6404 9.33005L10.2054 9.64005L10.3754 9.13005L9.93543 8.81505H10.4704L10.6404 8.30505ZM13.6804 8.30505L13.8454 8.82005H14.3804L13.9504 9.13505L14.1154 9.64005L13.6804 9.33005L13.2454 9.64005L13.4104 9.13005L12.9804 8.81505H13.5154L13.6804 8.30505ZM16.7204 8.30505L16.8854 8.82005H17.4254L16.9854 9.13505L17.1554 9.64005L16.7204 9.33005L16.2854 9.64005L16.4554 9.13005L16.0154 8.81505H16.5554L16.7204 8.30505ZM3.04043 9.60005L3.20543 10.11H3.75043L3.31543 10.425L3.48043 10.94L3.04543 10.62L2.61043 10.935L2.77543 10.425L2.34543 10.11H2.88043L3.04043 9.60005ZM6.08043 9.60005L6.25043 10.11H6.78543L6.34543 10.425L6.51543 10.94L6.08043 10.62L5.64543 10.935L5.81043 10.425L5.37543 10.11H5.91543L6.08043 9.60005ZM9.12043 9.60005L9.28543 10.11H9.82543L9.39043 10.425L9.55543 10.94L9.12043 10.62L8.68543 10.935L8.85043 10.425L8.42043 10.11H8.95043L9.12043 9.60005ZM12.1604 9.60005L12.3304 10.11H12.8654L12.4304 10.425L12.5954 10.94L12.1604 10.62L11.7304 10.935L11.8904 10.425L11.4554 10.11H12.0004L12.1604 9.60005ZM15.2004 9.60005L15.3654 10.11H15.9054L15.4704 10.425L15.6354 10.94L15.2004 10.62L14.7654 10.935L14.9304 10.425L14.5004 10.11H15.0354L15.2004 9.60005ZM1.52043 10.895L1.69043 11.405H2.22043L1.79043 11.72L1.95543 12.23L1.52043 11.915L1.09043 12.23L1.25043 11.715L0.81543 11.4H1.36043L1.52043 10.895ZM4.56043 10.895L4.72543 11.405H5.26543L4.83043 11.72L4.99543 12.23L4.56043 11.915L4.12543 12.23L4.29543 11.715L3.86043 11.4H4.39043L4.56043 10.895ZM7.60043 10.895L7.76543 11.405H8.30043L7.88043 11.72L8.04543 12.23L7.61043 11.915L7.17543 12.23L7.34043 11.715L6.90543 11.4H7.44543L7.60043 10.895ZM10.6404 10.895L10.8054 11.405H11.3454L10.9104 11.72L11.0754 12.23L10.6404 11.915L10.2054 12.23L10.3754 11.715L9.93543 11.4H10.4704L10.6404 10.895ZM13.6804 10.895L13.8454 11.405H14.3804L13.9504 11.72L14.1154 12.23L13.6804 11.915L13.2454 12.23L13.4104 11.715L12.9804 11.4H13.5154L13.6804 10.895ZM16.7204 10.895L16.8854 11.405H17.4254L16.9854 11.72L17.1554 12.23L16.7204 11.915L16.2854 12.23L16.4554 11.715L16.0154 11.4H16.5554L16.7204 10.895Z" fill="white"/>
</g>
<defs>
<clipPath id="clip0_4280_22586">
<rect width="32" height="24" fill="white"/>
</clipPath>
</defs>
</svg>
