<svg width="24" height="24" viewBox="0 0 24 24" fill="none" xmlns="http://www.w3.org/2000/svg">
<g clip-path="url(#clip0_4541_2266)">
<mask id="mask0_4541_2266" style="mask-type:luminance" maskUnits="userSpaceOnUse" x="0" y="0" width="24" height="24">
<path d="M24 0H0V24H24V0Z" fill="white"/>
</mask>
<g mask="url(#mask0_4541_2266)">
<path fill-rule="evenodd" clip-rule="evenodd" d="M6.54492 2.09524V21.9048C6.54492 23.0619 7.44034 24 8.54492 24H21.9995C23.104 24 23.9995 23.0619 23.9995 21.9048V5.51345C23.9995 4.95377 23.7857 4.41734 23.4059 4.02377L20.107 0.60556C19.7326 0.217597 19.2272 0 18.7006 0H8.54492C7.44034 0 6.54492 0.93807 6.54492 2.09524ZM7.81765 21.9048V2.09524C7.81765 1.67445 8.14325 1.33334 8.54492 1.33334H18.454V5.90477C18.454 6.69374 19.0646 7.33333 19.8176 7.33333H22.7267V21.9048C22.7267 22.3256 22.4011 22.6667 21.9995 22.6667H8.54492C8.14325 22.6667 7.81765 22.3256 7.81765 21.9048ZM22.7267 6V5.51345C22.7267 5.30993 22.649 5.11487 22.5109 4.97175L19.7267 2.08691V5.90477C19.7267 5.95736 19.7675 6 19.8176 6H22.7267Z" fill="#DBDBDB"/>
<path fill-rule="evenodd" clip-rule="evenodd" d="M15.6367 9.84375C15.6367 9.48135 15.9217 9.1875 16.2731 9.1875H20.4549C20.8063 9.1875 21.0913 9.48135 21.0913 9.84375C21.0913 10.2062 20.8063 10.5 20.4549 10.5H16.2731C15.9217 10.5 15.6367 10.2062 15.6367 9.84375Z" fill="#EF4C49" fill-opacity="0.2"/>
<path fill-rule="evenodd" clip-rule="evenodd" d="M15.6367 12.8438C15.6367 12.4814 15.9217 12.1875 16.2731 12.1875H20.4549C20.8063 12.1875 21.0913 12.4814 21.0913 12.8438C21.0913 13.2062 20.8063 13.5 20.4549 13.5H16.2731C15.9217 13.5 15.6367 13.2062 15.6367 12.8438Z" fill="#EF4C49" fill-opacity="0.6"/>
<path fill-rule="evenodd" clip-rule="evenodd" d="M15.6367 15.8438C15.6367 15.4814 15.9217 15.1875 16.2731 15.1875H20.4549C20.8063 15.1875 21.0913 15.4814 21.0913 15.8438C21.0913 16.2062 20.8063 16.5 20.4549 16.5H16.2731C15.9217 16.5 15.6367 16.2062 15.6367 15.8438Z" fill="#EF4C49"/>
<path d="M13.8799 8.25H0V17.25H13.8799V8.25Z" fill="#EF4C49"/>
<path d="M3.03762 10.626C3.28586 10.626 3.51084 10.654 3.71253 10.71C3.91423 10.762 4.0849 10.848 4.22453 10.968C4.36805 11.084 4.47666 11.238 4.55035 11.43C4.62793 11.618 4.66477 11.85 4.6609 12.126C4.65702 12.366 4.61629 12.58 4.53871 12.768C4.46114 12.952 4.35253 13.108 4.2129 13.236C4.07714 13.36 3.91229 13.456 3.71835 13.524C3.52829 13.588 3.32077 13.62 3.09581 13.62H2.29871V14.874H1.45508V10.626H3.03762ZM3.04926 12.852C3.15399 12.852 3.2529 12.838 3.34599 12.81C3.44295 12.782 3.52635 12.738 3.59617 12.678C3.66599 12.618 3.72223 12.544 3.7649 12.456C3.80757 12.368 3.83084 12.264 3.83471 12.144C3.84247 11.872 3.77071 11.68 3.61944 11.568C3.47205 11.456 3.28005 11.4 3.04344 11.4H2.29871V12.852H3.04926Z" fill="white"/>
<path d="M5.31836 14.874V10.626H6.83691C7.03472 10.626 7.22866 10.644 7.41872 10.68C7.60876 10.712 7.79109 10.776 7.96563 10.872C8.27596 11.036 8.50869 11.278 8.66381 11.598C8.82287 11.918 8.90236 12.304 8.90236 12.756C8.90236 13.44 8.72978 13.964 8.38454 14.328C8.04323 14.692 7.5409 14.874 6.87763 14.874H5.31836ZM6.88345 14.106C6.93776 14.106 6.99594 14.102 7.058 14.094C7.12005 14.086 7.18212 14.076 7.24418 14.064C7.30621 14.048 7.3644 14.03 7.41872 14.01C7.47305 13.99 7.5196 13.968 7.55836 13.944C7.71741 13.832 7.83567 13.674 7.91327 13.47C7.99472 13.262 8.03545 13.024 8.03545 12.756C8.03545 12.544 8.01218 12.352 7.96563 12.18C7.91909 12.008 7.8473 11.862 7.75036 11.742C7.64178 11.61 7.50214 11.52 7.33145 11.472C7.16466 11.424 6.99981 11.4 6.83691 11.4H6.162V14.106H6.88345Z" fill="white"/>
<path d="M12.425 10.626V11.4H10.3944V12.498H12.0991V13.26H10.3944V14.874H9.55078V10.626H12.425Z" fill="white"/>
</g>
</g>
<defs>
<clipPath id="clip0_4541_2266">
<rect width="24" height="24" fill="white"/>
</clipPath>
</defs>
</svg>
