<svg width="21" height="21" viewBox="0 0 21 21" fill="none" xmlns="http://www.w3.org/2000/svg">
<path d="M3.75 4.5C2.50736 4.5 1.5 5.50736 1.5 6.75V14.25C1.5 15.4926 2.50736 16.5 3.75 16.5H11.25C12.4926 16.5 13.5 15.4926 13.5 14.25V6.75C13.5 5.50736 12.4926 4.5 11.25 4.5H3.75Z" fill="white"/>
<path d="M19.5 5.25002C19.5 4.94668 19.3173 4.6732 19.037 4.55711C18.7568 4.44103 18.4342 4.50519 18.2197 4.71969L15.2197 7.71969C15.079 7.86034 15 8.05111 15 8.25002V12.75C15 12.9489 15.079 13.1397 15.2197 13.2804L18.2197 16.2804C18.4342 16.4949 18.7568 16.559 19.037 16.4429C19.3173 16.3268 19.5 16.0534 19.5 15.75V5.25002Z" fill="white"/>
</svg>
